M48
; DRILL file {KiCad (6.0.8)} date Sun Dec  4 22:26:35 2022
; FORMAT={-:-/ absolute / inch / decimal}
; #@! TF.CreationDate,2022-12-04T22:26:35-08:00
; #@! TF.GenerationSoftware,Kicad,Pcbnew,(6.0.8)
; #@! TF.FileFunction,Plated,1,4,PTH
FMAT,2
INCH
; #@! TA.AperFunction,Plated,PTH,ViaDrill
T1C0.0118
; #@! TA.AperFunction,Plated,PTH,ViaDrill
T2C0.0157
; #@! TA.AperFunction,Plated,PTH,ComponentDrill
T3C0.0236
; #@! TA.AperFunction,Plated,PTH,ComponentDrill
T4C0.0362
%
G90
G05
T1
X3.9144Y-2.5108
X3.9144Y-2.564
X3.9144Y-2.6161
X3.9144Y-2.6673
X3.9656Y-2.6673
X3.9665Y-2.5108
X3.9665Y-2.563
X3.9665Y-2.6152
X4.0187Y-2.5108
X4.0187Y-2.563
X4.0187Y-2.6152
X4.0187Y-2.6673
X4.0709Y-2.5108
X4.0709Y-2.563
X4.0709Y-2.6161
X4.0709Y-2.6673
T2
X3.4518Y-3.7274
X3.4882Y-3.6614
X3.5192Y-2.9983
X3.5344Y-3.375
X3.5488Y-2.7345
X3.5738Y-3.3996
X3.5999Y-3.0003
X3.6073Y-3.3533
X3.6368Y-3.7057
X3.6398Y-3.3858
X3.6437Y-3.9075
X3.6629Y-2.5987
X3.6806Y-2.7936
X3.6816Y-3.0003
X3.7653Y-3.0003
X3.7876Y-2.6154
X3.8224Y-2.8861
X3.848Y-2.7365
X3.9207Y-2.319
X3.9858Y-2.1184
X3.9892Y-4.0059
X4.0226Y-3.9724
X4.0463Y-2.3
X4.0468Y-2.391
X4.0561Y-3.9419
X4.0866Y-3.9094
X4.0881Y-2.1105
X4.161Y-2.8428
X4.1752Y-4.1713
X4.1772Y-4.0965
X4.1964Y-2.4766
X4.1964Y-2.7365
X4.2057Y-4.2264
X4.2062Y-2.0239
X4.224Y-2.2739
X4.2299Y-2.4215
X4.2372Y-1.5906
X4.2515Y-1.9727
X4.2574Y-2.6873
X4.2633Y-2.1892
X4.2692Y-2.4963
X4.2937Y-1.5337
X4.313Y-4.0531
X4.3524Y-1.7175
X4.3677Y-2.1046
X4.3991Y-2.1479
X4.4594Y-1.4283
X4.4724Y-1.7549
X4.4734Y-1.6722
X4.4737Y-1.3638
X4.4838Y-2.1479
X4.5157Y-4.1161
X4.5167Y-1.8081
X4.5522Y-4.2116
X4.5709Y-1.5315
X4.5906Y-1.8081
X4.6358Y-1.7549
X4.9213Y-3.9409
X4.9646Y-4.0039
X5.0197Y-3.8248
X5.2087Y-3.9055
X5.311Y-3.815
T4
X3.5002Y-3.8769
X3.5832Y-3.9298
X3.6496Y-3.9721
X3.7326Y-4.025
X5.1169Y-4.0204
X5.1999Y-3.9675
X5.2663Y-3.9252
X5.3493Y-3.8724
T3
G00X3.3891Y-3.8388
M15
G01X3.3679Y-3.872
M16
G05
G00X3.8141Y-4.1096
M15
G01X3.793Y-4.1428
M16
G05
G00X4.2547Y-1.2995
M15
G01X4.2547Y-1.268
M16
G05
G00X4.2547Y-1.4699
M15
G01X4.2547Y-1.4266
M16
G05
G00X4.2547Y-4.2806
M15
G01X4.2547Y-4.3239
M16
G05
G00X4.2547Y-4.451
M15
G01X4.2547Y-4.4825
M16
G05
G00X4.5948Y-1.2995
M15
G01X4.5948Y-1.268
M16
G05
G00X4.5948Y-1.4699
M15
G01X4.5948Y-1.4266
M16
G05
G00X4.5948Y-4.2806
M15
G01X4.5948Y-4.3239
M16
G05
G00X4.5948Y-4.451
M15
G01X4.5948Y-4.4825
M16
G05
G00X5.0354Y-4.105
M15
G01X5.0565Y-4.1382
M16
G05
G00X5.4604Y-3.8343
M15
G01X5.4815Y-3.8675
M16
G05
T0
M30
