%TF.GenerationSoftware,KiCad,Pcbnew,(6.0.8)*%
%TF.CreationDate,2022-12-04T22:26:40-08:00*%
%TF.ProjectId,Anduril USB Hub,416e6475-7269-46c2-9055-534220487562,rev?*%
%TF.SameCoordinates,Original*%
%TF.FileFunction,Legend,Bot*%
%TF.FilePolarity,Positive*%
%FSLAX46Y46*%
G04 Gerber Fmt 4.6, Leading zero omitted, Abs format (unit mm)*
G04 Created by KiCad (PCBNEW (6.0.8)) date 2022-12-04 22:26:40*
%MOMM*%
%LPD*%
G01*
G04 APERTURE LIST*
%ADD10C,0.150000*%
G04 APERTURE END LIST*
D10*
X123714404Y-46462380D02*
X123714404Y-47271904D01*
X123666785Y-47367142D01*
X123619166Y-47414761D01*
X123523928Y-47462380D01*
X123333452Y-47462380D01*
X123238214Y-47414761D01*
X123190595Y-47367142D01*
X123142976Y-47271904D01*
X123142976Y-46462380D01*
X122714404Y-47414761D02*
X122571547Y-47462380D01*
X122333452Y-47462380D01*
X122238214Y-47414761D01*
X122190595Y-47367142D01*
X122142976Y-47271904D01*
X122142976Y-47176666D01*
X122190595Y-47081428D01*
X122238214Y-47033809D01*
X122333452Y-46986190D01*
X122523928Y-46938571D01*
X122619166Y-46890952D01*
X122666785Y-46843333D01*
X122714404Y-46748095D01*
X122714404Y-46652857D01*
X122666785Y-46557619D01*
X122619166Y-46510000D01*
X122523928Y-46462380D01*
X122285833Y-46462380D01*
X122142976Y-46510000D01*
X121381071Y-46938571D02*
X121238214Y-46986190D01*
X121190595Y-47033809D01*
X121142976Y-47129047D01*
X121142976Y-47271904D01*
X121190595Y-47367142D01*
X121238214Y-47414761D01*
X121333452Y-47462380D01*
X121714404Y-47462380D01*
X121714404Y-46462380D01*
X121381071Y-46462380D01*
X121285833Y-46510000D01*
X121238214Y-46557619D01*
X121190595Y-46652857D01*
X121190595Y-46748095D01*
X121238214Y-46843333D01*
X121285833Y-46890952D01*
X121381071Y-46938571D01*
X121714404Y-46938571D01*
X120000119Y-46557619D02*
X119952500Y-46510000D01*
X119857261Y-46462380D01*
X119619166Y-46462380D01*
X119523928Y-46510000D01*
X119476309Y-46557619D01*
X119428690Y-46652857D01*
X119428690Y-46748095D01*
X119476309Y-46890952D01*
X120047738Y-47462380D01*
X119428690Y-47462380D01*
X119000119Y-47367142D02*
X118952500Y-47414761D01*
X119000119Y-47462380D01*
X119047738Y-47414761D01*
X119000119Y-47367142D01*
X119000119Y-47462380D01*
X118333452Y-46462380D02*
X118238214Y-46462380D01*
X118142976Y-46510000D01*
X118095357Y-46557619D01*
X118047738Y-46652857D01*
X118000119Y-46843333D01*
X118000119Y-47081428D01*
X118047738Y-47271904D01*
X118095357Y-47367142D01*
X118142976Y-47414761D01*
X118238214Y-47462380D01*
X118333452Y-47462380D01*
X118428690Y-47414761D01*
X118476309Y-47367142D01*
X118523928Y-47271904D01*
X118571547Y-47081428D01*
X118571547Y-46843333D01*
X118523928Y-46652857D01*
X118476309Y-46557619D01*
X118428690Y-46510000D01*
X118333452Y-46462380D01*
X123190595Y-49072380D02*
X123762023Y-49072380D01*
X123476309Y-49072380D02*
X123476309Y-48072380D01*
X123571547Y-48215238D01*
X123666785Y-48310476D01*
X123762023Y-48358095D01*
X122809642Y-48786666D02*
X122333452Y-48786666D01*
X122904880Y-49072380D02*
X122571547Y-48072380D01*
X122238214Y-49072380D01*
X121142976Y-49072380D02*
X121142976Y-48072380D01*
X120666785Y-48405714D02*
X120666785Y-49072380D01*
X120666785Y-48500952D02*
X120619166Y-48453333D01*
X120523928Y-48405714D01*
X120381071Y-48405714D01*
X120285833Y-48453333D01*
X120238214Y-48548571D01*
X120238214Y-49072380D01*
X119762023Y-48405714D02*
X119762023Y-49405714D01*
X119762023Y-48453333D02*
X119666785Y-48405714D01*
X119476309Y-48405714D01*
X119381071Y-48453333D01*
X119333452Y-48500952D01*
X119285833Y-48596190D01*
X119285833Y-48881904D01*
X119333452Y-48977142D01*
X119381071Y-49024761D01*
X119476309Y-49072380D01*
X119666785Y-49072380D01*
X119762023Y-49024761D01*
X118428690Y-48405714D02*
X118428690Y-49072380D01*
X118857261Y-48405714D02*
X118857261Y-48929523D01*
X118809642Y-49024761D01*
X118714404Y-49072380D01*
X118571547Y-49072380D01*
X118476309Y-49024761D01*
X118428690Y-48977142D01*
X118095357Y-48405714D02*
X117714404Y-48405714D01*
X117952500Y-48072380D02*
X117952500Y-48929523D01*
X117904880Y-49024761D01*
X117809642Y-49072380D01*
X117714404Y-49072380D01*
X116285833Y-48548571D02*
X116619166Y-48548571D01*
X116619166Y-49072380D02*
X116619166Y-48072380D01*
X116142976Y-48072380D01*
X115333452Y-48405714D02*
X115333452Y-49072380D01*
X115762023Y-48405714D02*
X115762023Y-48929523D01*
X115714404Y-49024761D01*
X115619166Y-49072380D01*
X115476309Y-49072380D01*
X115381071Y-49024761D01*
X115333452Y-48977142D01*
X114904880Y-49024761D02*
X114809642Y-49072380D01*
X114619166Y-49072380D01*
X114523928Y-49024761D01*
X114476309Y-48929523D01*
X114476309Y-48881904D01*
X114523928Y-48786666D01*
X114619166Y-48739047D01*
X114762023Y-48739047D01*
X114857261Y-48691428D01*
X114904880Y-48596190D01*
X114904880Y-48548571D01*
X114857261Y-48453333D01*
X114762023Y-48405714D01*
X114619166Y-48405714D01*
X114523928Y-48453333D01*
X113666785Y-49024761D02*
X113762023Y-49072380D01*
X113952500Y-49072380D01*
X114047738Y-49024761D01*
X114095357Y-48929523D01*
X114095357Y-48548571D01*
X114047738Y-48453333D01*
X113952500Y-48405714D01*
X113762023Y-48405714D01*
X113666785Y-48453333D01*
X113619166Y-48548571D01*
X113619166Y-48643809D01*
X114095357Y-48739047D01*
X123666785Y-50682380D02*
X123476309Y-50682380D01*
X123381071Y-50634761D01*
X123333452Y-50587142D01*
X123238214Y-50444285D01*
X123190595Y-50253809D01*
X123190595Y-49872857D01*
X123238214Y-49777619D01*
X123285833Y-49730000D01*
X123381071Y-49682380D01*
X123571547Y-49682380D01*
X123666785Y-49730000D01*
X123714404Y-49777619D01*
X123762023Y-49872857D01*
X123762023Y-50110952D01*
X123714404Y-50206190D01*
X123666785Y-50253809D01*
X123571547Y-50301428D01*
X123381071Y-50301428D01*
X123285833Y-50253809D01*
X123238214Y-50206190D01*
X123190595Y-50110952D01*
X122571547Y-49682380D02*
X122476309Y-49682380D01*
X122381071Y-49730000D01*
X122333452Y-49777619D01*
X122285833Y-49872857D01*
X122238214Y-50063333D01*
X122238214Y-50301428D01*
X122285833Y-50491904D01*
X122333452Y-50587142D01*
X122381071Y-50634761D01*
X122476309Y-50682380D01*
X122571547Y-50682380D01*
X122666785Y-50634761D01*
X122714404Y-50587142D01*
X122762023Y-50491904D01*
X122809642Y-50301428D01*
X122809642Y-50063333D01*
X122762023Y-49872857D01*
X122714404Y-49777619D01*
X122666785Y-49730000D01*
X122571547Y-49682380D01*
X121619166Y-49682380D02*
X121523928Y-49682380D01*
X121428690Y-49730000D01*
X121381071Y-49777619D01*
X121333452Y-49872857D01*
X121285833Y-50063333D01*
X121285833Y-50301428D01*
X121333452Y-50491904D01*
X121381071Y-50587142D01*
X121428690Y-50634761D01*
X121523928Y-50682380D01*
X121619166Y-50682380D01*
X121714404Y-50634761D01*
X121762023Y-50587142D01*
X121809642Y-50491904D01*
X121857261Y-50301428D01*
X121857261Y-50063333D01*
X121809642Y-49872857D01*
X121762023Y-49777619D01*
X121714404Y-49730000D01*
X121619166Y-49682380D01*
X120857261Y-50682380D02*
X120857261Y-50015714D01*
X120857261Y-50110952D02*
X120809642Y-50063333D01*
X120714404Y-50015714D01*
X120571547Y-50015714D01*
X120476309Y-50063333D01*
X120428690Y-50158571D01*
X120428690Y-50682380D01*
X120428690Y-50158571D02*
X120381071Y-50063333D01*
X120285833Y-50015714D01*
X120142976Y-50015714D01*
X120047738Y-50063333D01*
X120000119Y-50158571D01*
X120000119Y-50682380D01*
X119571547Y-50396666D02*
X119095357Y-50396666D01*
X119666785Y-50682380D02*
X119333452Y-49682380D01*
X119000119Y-50682380D01*
X117714404Y-49682380D02*
X117523928Y-49682380D01*
X117428690Y-49730000D01*
X117333452Y-49825238D01*
X117285833Y-50015714D01*
X117285833Y-50349047D01*
X117333452Y-50539523D01*
X117428690Y-50634761D01*
X117523928Y-50682380D01*
X117714404Y-50682380D01*
X117809642Y-50634761D01*
X117904880Y-50539523D01*
X117952500Y-50349047D01*
X117952500Y-50015714D01*
X117904880Y-49825238D01*
X117809642Y-49730000D01*
X117714404Y-49682380D01*
X116428690Y-50015714D02*
X116428690Y-50682380D01*
X116857261Y-50015714D02*
X116857261Y-50539523D01*
X116809642Y-50634761D01*
X116714404Y-50682380D01*
X116571547Y-50682380D01*
X116476309Y-50634761D01*
X116428690Y-50587142D01*
X116095357Y-50015714D02*
X115714404Y-50015714D01*
X115952500Y-49682380D02*
X115952500Y-50539523D01*
X115904880Y-50634761D01*
X115809642Y-50682380D01*
X115714404Y-50682380D01*
X115381071Y-50015714D02*
X115381071Y-51015714D01*
X115381071Y-50063333D02*
X115285833Y-50015714D01*
X115095357Y-50015714D01*
X115000119Y-50063333D01*
X114952500Y-50110952D01*
X114904880Y-50206190D01*
X114904880Y-50491904D01*
X114952500Y-50587142D01*
X115000119Y-50634761D01*
X115095357Y-50682380D01*
X115285833Y-50682380D01*
X115381071Y-50634761D01*
X114047738Y-50015714D02*
X114047738Y-50682380D01*
X114476309Y-50015714D02*
X114476309Y-50539523D01*
X114428690Y-50634761D01*
X114333452Y-50682380D01*
X114190595Y-50682380D01*
X114095357Y-50634761D01*
X114047738Y-50587142D01*
X113714404Y-50015714D02*
X113333452Y-50015714D01*
X113571547Y-49682380D02*
X113571547Y-50539523D01*
X113523928Y-50634761D01*
X113428690Y-50682380D01*
X113333452Y-50682380D01*
X111904880Y-50158571D02*
X112238214Y-50158571D01*
X112238214Y-50682380D02*
X112238214Y-49682380D01*
X111762023Y-49682380D01*
X110952500Y-50015714D02*
X110952500Y-50682380D01*
X111381071Y-50015714D02*
X111381071Y-50539523D01*
X111333452Y-50634761D01*
X111238214Y-50682380D01*
X111095357Y-50682380D01*
X111000119Y-50634761D01*
X110952500Y-50587142D01*
X110523928Y-50634761D02*
X110428690Y-50682380D01*
X110238214Y-50682380D01*
X110142976Y-50634761D01*
X110095357Y-50539523D01*
X110095357Y-50491904D01*
X110142976Y-50396666D01*
X110238214Y-50349047D01*
X110381071Y-50349047D01*
X110476309Y-50301428D01*
X110523928Y-50206190D01*
X110523928Y-50158571D01*
X110476309Y-50063333D01*
X110381071Y-50015714D01*
X110238214Y-50015714D01*
X110142976Y-50063333D01*
X109285833Y-50634761D02*
X109381071Y-50682380D01*
X109571547Y-50682380D01*
X109666785Y-50634761D01*
X109714404Y-50539523D01*
X109714404Y-50158571D01*
X109666785Y-50063333D01*
X109571547Y-50015714D01*
X109381071Y-50015714D01*
X109285833Y-50063333D01*
X109238214Y-50158571D01*
X109238214Y-50253809D01*
X109714404Y-50349047D01*
X117619166Y-51625714D02*
X117619166Y-52625714D01*
X117619166Y-51673333D02*
X117523928Y-51625714D01*
X117333452Y-51625714D01*
X117238214Y-51673333D01*
X117190595Y-51720952D01*
X117142976Y-51816190D01*
X117142976Y-52101904D01*
X117190595Y-52197142D01*
X117238214Y-52244761D01*
X117333452Y-52292380D01*
X117523928Y-52292380D01*
X117619166Y-52244761D01*
X116333452Y-52244761D02*
X116428690Y-52292380D01*
X116619166Y-52292380D01*
X116714404Y-52244761D01*
X116762023Y-52149523D01*
X116762023Y-51768571D01*
X116714404Y-51673333D01*
X116619166Y-51625714D01*
X116428690Y-51625714D01*
X116333452Y-51673333D01*
X116285833Y-51768571D01*
X116285833Y-51863809D01*
X116762023Y-51959047D01*
X115857261Y-52292380D02*
X115857261Y-51625714D01*
X115857261Y-51816190D02*
X115809642Y-51720952D01*
X115762023Y-51673333D01*
X115666785Y-51625714D01*
X115571547Y-51625714D01*
X114476309Y-51625714D02*
X114476309Y-52625714D01*
X114476309Y-51673333D02*
X114381071Y-51625714D01*
X114190595Y-51625714D01*
X114095357Y-51673333D01*
X114047738Y-51720952D01*
X114000119Y-51816190D01*
X114000119Y-52101904D01*
X114047738Y-52197142D01*
X114095357Y-52244761D01*
X114190595Y-52292380D01*
X114381071Y-52292380D01*
X114476309Y-52244761D01*
X113428690Y-52292380D02*
X113523928Y-52244761D01*
X113571547Y-52197142D01*
X113619166Y-52101904D01*
X113619166Y-51816190D01*
X113571547Y-51720952D01*
X113523928Y-51673333D01*
X113428690Y-51625714D01*
X113285833Y-51625714D01*
X113190595Y-51673333D01*
X113142976Y-51720952D01*
X113095357Y-51816190D01*
X113095357Y-52101904D01*
X113142976Y-52197142D01*
X113190595Y-52244761D01*
X113285833Y-52292380D01*
X113428690Y-52292380D01*
X112666785Y-52292380D02*
X112666785Y-51625714D01*
X112666785Y-51816190D02*
X112619166Y-51720952D01*
X112571547Y-51673333D01*
X112476309Y-51625714D01*
X112381071Y-51625714D01*
X112190595Y-51625714D02*
X111809642Y-51625714D01*
X112047738Y-51292380D02*
X112047738Y-52149523D01*
X112000119Y-52244761D01*
X111904880Y-52292380D01*
X111809642Y-52292380D01*
M02*
