%TF.GenerationSoftware,KiCad,Pcbnew,(6.0.8)*%
%TF.CreationDate,2022-12-20T01:42:36-08:00*%
%TF.ProjectId,Anduril USB Hub,416e6475-7269-46c2-9055-534220487562,rev?*%
%TF.SameCoordinates,Original*%
%TF.FileFunction,Paste,Top*%
%TF.FilePolarity,Positive*%
%FSLAX46Y46*%
G04 Gerber Fmt 4.6, Leading zero omitted, Abs format (unit mm)*
G04 Created by KiCad (PCBNEW (6.0.8)) date 2022-12-20 01:42:36*
%MOMM*%
%LPD*%
G01*
G04 APERTURE LIST*
G04 Aperture macros list*
%AMRoundRect*
0 Rectangle with rounded corners*
0 $1 Rounding radius*
0 $2 $3 $4 $5 $6 $7 $8 $9 X,Y pos of 4 corners*
0 Add a 4 corners polygon primitive as box body*
4,1,4,$2,$3,$4,$5,$6,$7,$8,$9,$2,$3,0*
0 Add four circle primitives for the rounded corners*
1,1,$1+$1,$2,$3*
1,1,$1+$1,$4,$5*
1,1,$1+$1,$6,$7*
1,1,$1+$1,$8,$9*
0 Add four rect primitives between the rounded corners*
20,1,$1+$1,$2,$3,$4,$5,0*
20,1,$1+$1,$4,$5,$6,$7,0*
20,1,$1+$1,$6,$7,$8,$9,0*
20,1,$1+$1,$8,$9,$2,$3,0*%
G04 Aperture macros list end*
%ADD10RoundRect,0.150000X-0.150000X0.512500X-0.150000X-0.512500X0.150000X-0.512500X0.150000X0.512500X0*%
%ADD11RoundRect,0.250000X0.020395X-0.520567X0.463175X-0.238485X-0.020395X0.520567X-0.463175X0.238485X0*%
%ADD12RoundRect,0.250000X-0.262500X-0.450000X0.262500X-0.450000X0.262500X0.450000X-0.262500X0.450000X0*%
%ADD13RoundRect,0.250000X-0.463175X-0.238485X-0.020395X-0.520567X0.463175X0.238485X0.020395X0.520567X0*%
%ADD14RoundRect,0.250000X0.044369X-0.534936X0.466065X-0.266286X-0.044369X0.534936X-0.466065X0.266286X0*%
%ADD15RoundRect,0.250000X-0.250000X-0.475000X0.250000X-0.475000X0.250000X0.475000X-0.250000X0.475000X0*%
%ADD16RoundRect,0.250000X-0.466065X-0.266286X-0.044369X-0.534936X0.466065X0.266286X0.044369X0.534936X0*%
%ADD17RoundRect,0.250000X-0.534936X-0.044369X-0.266286X-0.466065X0.534936X0.044369X0.266286X0.466065X0*%
%ADD18RoundRect,0.250000X-0.475000X0.250000X-0.475000X-0.250000X0.475000X-0.250000X0.475000X0.250000X0*%
%ADD19RoundRect,0.150000X0.401875X-0.351643X-0.148857X0.512833X-0.401875X0.351643X0.148857X-0.512833X0*%
%ADD20RoundRect,0.243750X0.456250X-0.243750X0.456250X0.243750X-0.456250X0.243750X-0.456250X-0.243750X0*%
%ADD21RoundRect,0.250000X0.262500X0.450000X-0.262500X0.450000X-0.262500X-0.450000X0.262500X-0.450000X0*%
%ADD22RoundRect,0.250000X-0.450000X0.262500X-0.450000X-0.262500X0.450000X-0.262500X0.450000X0.262500X0*%
%ADD23RoundRect,0.250000X0.475000X-0.250000X0.475000X0.250000X-0.475000X0.250000X-0.475000X-0.250000X0*%
%ADD24RoundRect,0.150000X0.150000X-0.512500X0.150000X0.512500X-0.150000X0.512500X-0.150000X-0.512500X0*%
%ADD25RoundRect,0.243750X0.253831X-0.450720X0.515764X-0.039566X-0.253831X0.450720X-0.515764X0.039566X0*%
%ADD26R,0.600000X1.450000*%
%ADD27R,0.300000X1.450000*%
%ADD28RoundRect,0.250000X0.285000X-0.285000X0.285000X0.285000X-0.285000X0.285000X-0.285000X-0.285000X0*%
%ADD29RoundRect,0.062500X0.062500X-0.337500X0.062500X0.337500X-0.062500X0.337500X-0.062500X-0.337500X0*%
%ADD30RoundRect,0.062500X0.337500X-0.062500X0.337500X0.062500X-0.337500X0.062500X-0.337500X-0.062500X0*%
%ADD31RoundRect,0.243750X-0.243750X-0.456250X0.243750X-0.456250X0.243750X0.456250X-0.243750X0.456250X0*%
%ADD32R,1.200000X1.400000*%
%ADD33RoundRect,0.250000X-0.266286X0.466065X-0.534936X0.044369X0.266286X-0.466065X0.534936X-0.044369X0*%
%ADD34RoundRect,0.150000X-0.148857X-0.512833X0.401875X0.351643X0.148857X0.512833X-0.401875X-0.351643X0*%
%ADD35RoundRect,0.243750X0.515764X0.039566X0.253831X0.450720X-0.515764X-0.039566X-0.253831X-0.450720X0*%
G04 APERTURE END LIST*
D10*
%TO.C,U1*%
X112850000Y-40562500D03*
X111900000Y-40562500D03*
X110950000Y-40562500D03*
X110950000Y-42837500D03*
X111900000Y-42837500D03*
X112850000Y-42837500D03*
%TD*%
D11*
%TO.C,R10*%
X136680405Y-94240286D03*
X138219595Y-93259714D03*
%TD*%
D12*
%TO.C,R9*%
X116487500Y-104950000D03*
X118312500Y-104950000D03*
%TD*%
D13*
%TO.C,R5*%
X100180405Y-105159714D03*
X101719595Y-106140286D03*
%TD*%
D12*
%TO.C,R4*%
X120712500Y-37600000D03*
X118887500Y-37600000D03*
%TD*%
D14*
%TO.C,C22*%
X135447556Y-92320870D03*
X137050000Y-91300000D03*
%TD*%
D15*
%TO.C,C8*%
X116450000Y-102750000D03*
X118350000Y-102750000D03*
%TD*%
D16*
%TO.C,C3*%
X100651222Y-107960435D03*
X99048778Y-106939565D03*
%TD*%
D15*
%TO.C,C1*%
X118850000Y-35100000D03*
X120750000Y-35100000D03*
%TD*%
D17*
%TO.C,C21*%
X126189565Y-99298778D03*
X127210435Y-100901222D03*
%TD*%
D18*
%TO.C,C9*%
X95638342Y-73306379D03*
X95638342Y-75206379D03*
%TD*%
D19*
%TO.C,U5*%
X130709956Y-98469792D03*
X131511178Y-97959358D03*
X132312400Y-97448923D03*
X131090044Y-95530208D03*
X130288822Y-96040642D03*
X129487600Y-96551077D03*
%TD*%
D20*
%TO.C,F3*%
X109550000Y-105937500D03*
X109550000Y-104062500D03*
%TD*%
D21*
%TO.C,FB1*%
X117712500Y-42475000D03*
X115887500Y-42475000D03*
%TD*%
D12*
%TO.C,R1*%
X105687500Y-42400000D03*
X107512500Y-42400000D03*
%TD*%
D22*
%TO.C,R3*%
X89388342Y-73343879D03*
X89388342Y-75168879D03*
%TD*%
D23*
%TO.C,C17*%
X111738342Y-57506379D03*
X111738342Y-55606379D03*
%TD*%
D24*
%TO.C,U4*%
X111450000Y-105737500D03*
X112400000Y-105737500D03*
X113350000Y-105737500D03*
X113350000Y-103462500D03*
X112400000Y-103462500D03*
X111450000Y-103462500D03*
%TD*%
D25*
%TO.C,F2*%
X90696282Y-96590679D03*
X91703718Y-95009321D03*
%TD*%
D18*
%TO.C,C15*%
X91438342Y-73306379D03*
X91438342Y-75206379D03*
%TD*%
D26*
%TO.C,J3*%
X109138342Y-108361379D03*
X109938342Y-108361379D03*
D27*
X111138342Y-108361379D03*
X112138342Y-108361379D03*
X112638342Y-108361379D03*
X113638342Y-108361379D03*
D26*
X114838342Y-108361379D03*
X115638342Y-108361379D03*
X115638342Y-108361379D03*
X114838342Y-108361379D03*
D27*
X114138342Y-108361379D03*
X113138342Y-108361379D03*
X111638342Y-108361379D03*
X110638342Y-108361379D03*
D26*
X109938342Y-108361379D03*
X109138342Y-108361379D03*
%TD*%
D15*
%TO.C,C16*%
X104288342Y-70981379D03*
X106188342Y-70981379D03*
%TD*%
D28*
%TO.C,U2*%
X100728342Y-66416379D03*
X103368342Y-63776379D03*
X102048342Y-66416379D03*
X99408342Y-66416379D03*
X102048342Y-65096379D03*
X99408342Y-67736379D03*
X103368342Y-67736379D03*
X99408342Y-63776379D03*
X102048342Y-67736379D03*
X100728342Y-67736379D03*
X100728342Y-63776379D03*
X99408342Y-65096379D03*
X103368342Y-65096379D03*
X103368342Y-66416379D03*
X100728342Y-65096379D03*
X102048342Y-63776379D03*
D29*
X98638342Y-69206379D03*
X99138342Y-69206379D03*
X99638342Y-69206379D03*
X100138342Y-69206379D03*
X100638342Y-69206379D03*
X101138342Y-69206379D03*
X101638342Y-69206379D03*
X102138342Y-69206379D03*
X102638342Y-69206379D03*
X103138342Y-69206379D03*
X103638342Y-69206379D03*
X104138342Y-69206379D03*
D30*
X104838342Y-68506379D03*
X104838342Y-68006379D03*
X104838342Y-67506379D03*
X104838342Y-67006379D03*
X104838342Y-66506379D03*
X104838342Y-66006379D03*
X104838342Y-65506379D03*
X104838342Y-65006379D03*
X104838342Y-64506379D03*
X104838342Y-64006379D03*
X104838342Y-63506379D03*
X104838342Y-63006379D03*
D29*
X104138342Y-62306379D03*
X103638342Y-62306379D03*
X103138342Y-62306379D03*
X102638342Y-62306379D03*
X102138342Y-62306379D03*
X101638342Y-62306379D03*
X101138342Y-62306379D03*
X100638342Y-62306379D03*
X100138342Y-62306379D03*
X99638342Y-62306379D03*
X99138342Y-62306379D03*
X98638342Y-62306379D03*
D30*
X97938342Y-63006379D03*
X97938342Y-63506379D03*
X97938342Y-64006379D03*
X97938342Y-64506379D03*
X97938342Y-65006379D03*
X97938342Y-65506379D03*
X97938342Y-66006379D03*
X97938342Y-66506379D03*
X97938342Y-67006379D03*
X97938342Y-67506379D03*
X97938342Y-68006379D03*
X97938342Y-68506379D03*
%TD*%
D23*
%TO.C,C19*%
X100588342Y-56906379D03*
X100588342Y-55006379D03*
%TD*%
%TO.C,C12*%
X109588342Y-57506379D03*
X109588342Y-55606379D03*
%TD*%
%TO.C,C5*%
X94988342Y-67156379D03*
X94988342Y-65256379D03*
%TD*%
D15*
%TO.C,C18*%
X106538342Y-66906379D03*
X108438342Y-66906379D03*
%TD*%
D18*
%TO.C,C6*%
X105888342Y-57756379D03*
X105888342Y-59656379D03*
%TD*%
D31*
%TO.C,F1*%
X115862500Y-40400000D03*
X117737500Y-40400000D03*
%TD*%
D26*
%TO.C,J1*%
X115638342Y-37701379D03*
X114838342Y-37701379D03*
D27*
X113638342Y-37701379D03*
X112638342Y-37701379D03*
X112138342Y-37701379D03*
X111138342Y-37701379D03*
D26*
X109938342Y-37701379D03*
X109138342Y-37701379D03*
X109138342Y-37701379D03*
X109938342Y-37701379D03*
D27*
X110638342Y-37701379D03*
X111638342Y-37701379D03*
X113138342Y-37701379D03*
X114138342Y-37701379D03*
D26*
X114838342Y-37701379D03*
X115638342Y-37701379D03*
%TD*%
D32*
%TO.C,Y1*%
X93013342Y-69456379D03*
X93013342Y-67256379D03*
X91313342Y-67256379D03*
X91313342Y-69456379D03*
%TD*%
D23*
%TO.C,C11*%
X102688342Y-56306379D03*
X102688342Y-54406379D03*
%TD*%
%TO.C,C20*%
X113888342Y-57506379D03*
X113888342Y-55606379D03*
%TD*%
D33*
%TO.C,C2*%
X89810435Y-93798778D03*
X88789565Y-95401222D03*
%TD*%
D12*
%TO.C,R6*%
X107975842Y-51406379D03*
X109800842Y-51406379D03*
%TD*%
D18*
%TO.C,C7*%
X107400000Y-104050000D03*
X107400000Y-105950000D03*
%TD*%
D34*
%TO.C,U3*%
X92487600Y-97548923D03*
X93288822Y-98059358D03*
X94090044Y-98569792D03*
X95312400Y-96651077D03*
X94511178Y-96140642D03*
X93709956Y-95630208D03*
%TD*%
D15*
%TO.C,C10*%
X115850000Y-44575000D03*
X117750000Y-44575000D03*
%TD*%
D18*
%TO.C,C13*%
X93538342Y-73306379D03*
X93538342Y-75206379D03*
%TD*%
D23*
%TO.C,C4*%
X94988342Y-70631379D03*
X94988342Y-68731379D03*
%TD*%
D22*
%TO.C,R8*%
X105888342Y-54193879D03*
X105888342Y-56018879D03*
%TD*%
D15*
%TO.C,C14*%
X106538342Y-64756379D03*
X108438342Y-64756379D03*
%TD*%
D21*
%TO.C,R2*%
X107512500Y-40400000D03*
X105687500Y-40400000D03*
%TD*%
D12*
%TO.C,R7*%
X107975842Y-53456379D03*
X109800842Y-53456379D03*
%TD*%
D35*
%TO.C,F4*%
X129103718Y-99690679D03*
X128096282Y-98109321D03*
%TD*%
M02*
