%TF.GenerationSoftware,KiCad,Pcbnew,(6.0.8)*%
%TF.CreationDate,2022-12-20T01:42:36-08:00*%
%TF.ProjectId,Anduril USB Hub,416e6475-7269-46c2-9055-534220487562,rev?*%
%TF.SameCoordinates,Original*%
%TF.FileFunction,Legend,Top*%
%TF.FilePolarity,Positive*%
%FSLAX46Y46*%
G04 Gerber Fmt 4.6, Leading zero omitted, Abs format (unit mm)*
G04 Created by KiCad (PCBNEW (6.0.8)) date 2022-12-20 01:42:36*
%MOMM*%
%LPD*%
G01*
G04 APERTURE LIST*
%ADD10C,0.150000*%
%ADD11C,0.120000*%
G04 APERTURE END LIST*
D10*
%TO.C,U1*%
X111138095Y-44102380D02*
X111138095Y-44911904D01*
X111185714Y-45007142D01*
X111233333Y-45054761D01*
X111328571Y-45102380D01*
X111519047Y-45102380D01*
X111614285Y-45054761D01*
X111661904Y-45007142D01*
X111709523Y-44911904D01*
X111709523Y-44102380D01*
X112709523Y-45102380D02*
X112138095Y-45102380D01*
X112423809Y-45102380D02*
X112423809Y-44102380D01*
X112328571Y-44245238D01*
X112233333Y-44340476D01*
X112138095Y-44388095D01*
%TO.C,R10*%
X140600883Y-92276941D02*
X140063896Y-92054426D01*
X140118945Y-92583969D02*
X139581646Y-91740578D01*
X139902938Y-91535892D01*
X140008846Y-91524882D01*
X140074594Y-91539458D01*
X140165927Y-91594195D01*
X140242684Y-91714680D01*
X140253694Y-91820588D01*
X140239118Y-91886336D01*
X140184380Y-91977668D01*
X139863088Y-92182354D01*
X141404113Y-91765227D02*
X140922175Y-92072255D01*
X141163144Y-91918741D02*
X140625845Y-91075349D01*
X140622279Y-91247005D01*
X140593127Y-91378500D01*
X140538390Y-91469833D01*
X141388913Y-90589221D02*
X141469236Y-90538050D01*
X141575145Y-90527040D01*
X141640892Y-90541616D01*
X141732225Y-90596353D01*
X141874729Y-90731413D01*
X142002658Y-90932221D01*
X142064839Y-91118452D01*
X142075849Y-91224361D01*
X142061273Y-91290108D01*
X142006536Y-91381441D01*
X141926213Y-91432613D01*
X141820304Y-91443623D01*
X141754557Y-91429047D01*
X141663224Y-91374309D01*
X141520720Y-91239249D01*
X141392791Y-91038442D01*
X141330610Y-90852210D01*
X141319600Y-90746301D01*
X141334176Y-90680554D01*
X141388913Y-90589221D01*
%TO.C,R9*%
X120733333Y-105402380D02*
X120400000Y-104926190D01*
X120161904Y-105402380D02*
X120161904Y-104402380D01*
X120542857Y-104402380D01*
X120638095Y-104450000D01*
X120685714Y-104497619D01*
X120733333Y-104592857D01*
X120733333Y-104735714D01*
X120685714Y-104830952D01*
X120638095Y-104878571D01*
X120542857Y-104926190D01*
X120161904Y-104926190D01*
X121209523Y-105402380D02*
X121400000Y-105402380D01*
X121495238Y-105354761D01*
X121542857Y-105307142D01*
X121638095Y-105164285D01*
X121685714Y-104973809D01*
X121685714Y-104592857D01*
X121638095Y-104497619D01*
X121590476Y-104450000D01*
X121495238Y-104402380D01*
X121304761Y-104402380D01*
X121209523Y-104450000D01*
X121161904Y-104497619D01*
X121114285Y-104592857D01*
X121114285Y-104830952D01*
X121161904Y-104926190D01*
X121209523Y-104973809D01*
X121304761Y-105021428D01*
X121495238Y-105021428D01*
X121590476Y-104973809D01*
X121638095Y-104926190D01*
X121685714Y-104830952D01*
%TO.C,R5*%
X102866370Y-107491984D02*
X102841097Y-106911269D01*
X102384432Y-107184955D02*
X102921732Y-106341564D01*
X103243024Y-106546250D01*
X103297761Y-106637582D01*
X103312337Y-106703330D01*
X103301327Y-106809238D01*
X103224570Y-106929723D01*
X103133237Y-106984460D01*
X103067490Y-106999036D01*
X102961581Y-106988026D01*
X102640289Y-106783340D01*
X104166738Y-107134721D02*
X103765123Y-106878864D01*
X103469105Y-107254893D01*
X103534852Y-107240317D01*
X103640761Y-107251327D01*
X103841568Y-107379255D01*
X103896305Y-107470588D01*
X103910881Y-107536336D01*
X103899871Y-107642244D01*
X103771943Y-107843052D01*
X103680610Y-107897789D01*
X103614863Y-107912365D01*
X103508954Y-107901355D01*
X103308147Y-107773426D01*
X103253409Y-107682094D01*
X103238834Y-107616346D01*
%TO.C,R4*%
X120583333Y-40652380D02*
X120250000Y-40176190D01*
X120011904Y-40652380D02*
X120011904Y-39652380D01*
X120392857Y-39652380D01*
X120488095Y-39700000D01*
X120535714Y-39747619D01*
X120583333Y-39842857D01*
X120583333Y-39985714D01*
X120535714Y-40080952D01*
X120488095Y-40128571D01*
X120392857Y-40176190D01*
X120011904Y-40176190D01*
X121440476Y-39985714D02*
X121440476Y-40652380D01*
X121202380Y-39604761D02*
X120964285Y-40319047D01*
X121583333Y-40319047D01*
%TO.C,C22*%
X139399712Y-90246618D02*
X139385136Y-90312365D01*
X139290237Y-90429283D01*
X139209914Y-90480455D01*
X139063844Y-90517050D01*
X138932350Y-90487899D01*
X138841017Y-90433161D01*
X138698513Y-90298101D01*
X138621756Y-90177617D01*
X138559574Y-89991385D01*
X138548564Y-89885476D01*
X138577716Y-89753982D01*
X138672615Y-89637063D01*
X138752938Y-89585892D01*
X138899008Y-89549296D01*
X138964755Y-89563872D01*
X139286047Y-89359187D02*
X139300623Y-89293439D01*
X139355360Y-89202107D01*
X139556168Y-89074178D01*
X139662076Y-89063168D01*
X139727824Y-89077744D01*
X139819157Y-89132481D01*
X139870328Y-89212804D01*
X139906923Y-89358874D01*
X139732014Y-90147841D01*
X140254113Y-89815227D01*
X140089277Y-88847473D02*
X140103853Y-88781725D01*
X140158590Y-88690393D01*
X140359398Y-88562464D01*
X140465306Y-88551454D01*
X140531054Y-88566030D01*
X140622386Y-88620767D01*
X140673558Y-88701090D01*
X140710153Y-88847161D01*
X140535244Y-89636127D01*
X141057343Y-89303513D01*
%TO.C,C8*%
X120733333Y-103107142D02*
X120685714Y-103154761D01*
X120542857Y-103202380D01*
X120447619Y-103202380D01*
X120304761Y-103154761D01*
X120209523Y-103059523D01*
X120161904Y-102964285D01*
X120114285Y-102773809D01*
X120114285Y-102630952D01*
X120161904Y-102440476D01*
X120209523Y-102345238D01*
X120304761Y-102250000D01*
X120447619Y-102202380D01*
X120542857Y-102202380D01*
X120685714Y-102250000D01*
X120733333Y-102297619D01*
X121304761Y-102630952D02*
X121209523Y-102583333D01*
X121161904Y-102535714D01*
X121114285Y-102440476D01*
X121114285Y-102392857D01*
X121161904Y-102297619D01*
X121209523Y-102250000D01*
X121304761Y-102202380D01*
X121495238Y-102202380D01*
X121590476Y-102250000D01*
X121638095Y-102297619D01*
X121685714Y-102392857D01*
X121685714Y-102440476D01*
X121638095Y-102535714D01*
X121590476Y-102583333D01*
X121495238Y-102630952D01*
X121304761Y-102630952D01*
X121209523Y-102678571D01*
X121161904Y-102726190D01*
X121114285Y-102821428D01*
X121114285Y-103011904D01*
X121161904Y-103107142D01*
X121209523Y-103154761D01*
X121304761Y-103202380D01*
X121495238Y-103202380D01*
X121590476Y-103154761D01*
X121638095Y-103107142D01*
X121685714Y-103011904D01*
X121685714Y-102821428D01*
X121638095Y-102726190D01*
X121590476Y-102678571D01*
X121495238Y-102630952D01*
%TO.C,C3*%
X101867542Y-109061661D02*
X101801794Y-109076237D01*
X101655724Y-109039641D01*
X101575401Y-108988470D01*
X101480502Y-108871551D01*
X101451351Y-108740057D01*
X101462361Y-108634148D01*
X101524542Y-108447916D01*
X101601299Y-108327432D01*
X101743803Y-108192371D01*
X101835136Y-108137634D01*
X101966631Y-108108483D01*
X102112701Y-108145078D01*
X102193024Y-108196250D01*
X102287923Y-108313168D01*
X102302498Y-108378915D01*
X102634800Y-108477692D02*
X103156900Y-108810306D01*
X102671084Y-108952498D01*
X102791568Y-109029255D01*
X102846305Y-109120588D01*
X102860881Y-109186336D01*
X102849871Y-109292244D01*
X102721943Y-109493052D01*
X102630610Y-109547789D01*
X102564863Y-109562365D01*
X102458954Y-109551355D01*
X102217985Y-109397841D01*
X102163248Y-109306508D01*
X102148672Y-109240761D01*
%TO.C,C1*%
X120233333Y-32857142D02*
X120185714Y-32904761D01*
X120042857Y-32952380D01*
X119947619Y-32952380D01*
X119804761Y-32904761D01*
X119709523Y-32809523D01*
X119661904Y-32714285D01*
X119614285Y-32523809D01*
X119614285Y-32380952D01*
X119661904Y-32190476D01*
X119709523Y-32095238D01*
X119804761Y-32000000D01*
X119947619Y-31952380D01*
X120042857Y-31952380D01*
X120185714Y-32000000D01*
X120233333Y-32047619D01*
X121185714Y-32952380D02*
X120614285Y-32952380D01*
X120900000Y-32952380D02*
X120900000Y-31952380D01*
X120804761Y-32095238D01*
X120709523Y-32190476D01*
X120614285Y-32238095D01*
%TO.C,C21*%
X124899712Y-98496618D02*
X124885136Y-98562365D01*
X124790237Y-98679283D01*
X124709914Y-98730455D01*
X124563844Y-98767050D01*
X124432350Y-98737899D01*
X124341017Y-98683161D01*
X124198513Y-98548101D01*
X124121756Y-98427617D01*
X124059574Y-98241385D01*
X124048564Y-98135476D01*
X124077716Y-98003982D01*
X124172615Y-97887063D01*
X124252938Y-97835892D01*
X124399008Y-97799296D01*
X124464755Y-97813872D01*
X124786047Y-97609187D02*
X124800623Y-97543439D01*
X124855360Y-97452107D01*
X125056168Y-97324178D01*
X125162076Y-97313168D01*
X125227824Y-97327744D01*
X125319157Y-97382481D01*
X125370328Y-97462804D01*
X125406923Y-97608874D01*
X125232014Y-98397841D01*
X125754113Y-98065227D01*
X126557343Y-97553513D02*
X126075405Y-97860541D01*
X126316374Y-97707027D02*
X125779075Y-96863636D01*
X125775509Y-97035291D01*
X125746357Y-97166786D01*
X125691620Y-97258119D01*
%TO.C,J4*%
X127624634Y-108317242D02*
X128008419Y-108919665D01*
X128045015Y-109065735D01*
X128015863Y-109197229D01*
X127920964Y-109314148D01*
X127840641Y-109365319D01*
X128566802Y-108112244D02*
X128925002Y-108674505D01*
X128161309Y-107918881D02*
X128344287Y-108649232D01*
X128866386Y-108316618D01*
%TO.C,C9*%
X95521675Y-79057142D02*
X95474056Y-79104761D01*
X95331199Y-79152380D01*
X95235961Y-79152380D01*
X95093103Y-79104761D01*
X94997865Y-79009523D01*
X94950246Y-78914285D01*
X94902627Y-78723809D01*
X94902627Y-78580952D01*
X94950246Y-78390476D01*
X94997865Y-78295238D01*
X95093103Y-78200000D01*
X95235961Y-78152380D01*
X95331199Y-78152380D01*
X95474056Y-78200000D01*
X95521675Y-78247619D01*
X95997865Y-79152380D02*
X96188342Y-79152380D01*
X96283580Y-79104761D01*
X96331199Y-79057142D01*
X96426437Y-78914285D01*
X96474056Y-78723809D01*
X96474056Y-78342857D01*
X96426437Y-78247619D01*
X96378818Y-78200000D01*
X96283580Y-78152380D01*
X96093103Y-78152380D01*
X95997865Y-78200000D01*
X95950246Y-78247619D01*
X95902627Y-78342857D01*
X95902627Y-78580952D01*
X95950246Y-78676190D01*
X95997865Y-78723809D01*
X96093103Y-78771428D01*
X96283580Y-78771428D01*
X96378818Y-78723809D01*
X96426437Y-78676190D01*
X96474056Y-78580952D01*
%TO.C,U5*%
X128413180Y-94497514D02*
X128848137Y-95180260D01*
X128939470Y-95234997D01*
X129005217Y-95249573D01*
X129111126Y-95238563D01*
X129271772Y-95136220D01*
X129326509Y-95044887D01*
X129341085Y-94979140D01*
X129330075Y-94873232D01*
X128895118Y-94190486D01*
X129698348Y-93678772D02*
X129296733Y-93934629D01*
X129512428Y-94361830D01*
X129527004Y-94296083D01*
X129581742Y-94204750D01*
X129782549Y-94076821D01*
X129888458Y-94065811D01*
X129954205Y-94080387D01*
X130045538Y-94135124D01*
X130173466Y-94335932D01*
X130184476Y-94441841D01*
X130169900Y-94507588D01*
X130115163Y-94598921D01*
X129914356Y-94726849D01*
X129808447Y-94737859D01*
X129742700Y-94723283D01*
%TO.C,F3*%
X109316666Y-101778571D02*
X108983333Y-101778571D01*
X108983333Y-102302380D02*
X108983333Y-101302380D01*
X109459523Y-101302380D01*
X109745238Y-101302380D02*
X110364285Y-101302380D01*
X110030952Y-101683333D01*
X110173809Y-101683333D01*
X110269047Y-101730952D01*
X110316666Y-101778571D01*
X110364285Y-101873809D01*
X110364285Y-102111904D01*
X110316666Y-102207142D01*
X110269047Y-102254761D01*
X110173809Y-102302380D01*
X109888095Y-102302380D01*
X109792857Y-102254761D01*
X109745238Y-102207142D01*
%TO.C,FB1*%
X120666666Y-43928571D02*
X120333333Y-43928571D01*
X120333333Y-44452380D02*
X120333333Y-43452380D01*
X120809523Y-43452380D01*
X121523809Y-43928571D02*
X121666666Y-43976190D01*
X121714285Y-44023809D01*
X121761904Y-44119047D01*
X121761904Y-44261904D01*
X121714285Y-44357142D01*
X121666666Y-44404761D01*
X121571428Y-44452380D01*
X121190476Y-44452380D01*
X121190476Y-43452380D01*
X121523809Y-43452380D01*
X121619047Y-43500000D01*
X121666666Y-43547619D01*
X121714285Y-43642857D01*
X121714285Y-43738095D01*
X121666666Y-43833333D01*
X121619047Y-43880952D01*
X121523809Y-43928571D01*
X121190476Y-43928571D01*
X122714285Y-44452380D02*
X122142857Y-44452380D01*
X122428571Y-44452380D02*
X122428571Y-43452380D01*
X122333333Y-43595238D01*
X122238095Y-43690476D01*
X122142857Y-43738095D01*
%TO.C,R1*%
X102883333Y-42796001D02*
X102550000Y-42319811D01*
X102311904Y-42796001D02*
X102311904Y-41796001D01*
X102692857Y-41796001D01*
X102788095Y-41843621D01*
X102835714Y-41891240D01*
X102883333Y-41986478D01*
X102883333Y-42129335D01*
X102835714Y-42224573D01*
X102788095Y-42272192D01*
X102692857Y-42319811D01*
X102311904Y-42319811D01*
X103835714Y-42796001D02*
X103264285Y-42796001D01*
X103550000Y-42796001D02*
X103550000Y-41796001D01*
X103454761Y-41938859D01*
X103359523Y-42034097D01*
X103264285Y-42081716D01*
%TO.C,R3*%
X89183333Y-77852380D02*
X88850000Y-77376190D01*
X88611904Y-77852380D02*
X88611904Y-76852380D01*
X88992857Y-76852380D01*
X89088095Y-76900000D01*
X89135714Y-76947619D01*
X89183333Y-77042857D01*
X89183333Y-77185714D01*
X89135714Y-77280952D01*
X89088095Y-77328571D01*
X88992857Y-77376190D01*
X88611904Y-77376190D01*
X89516666Y-76852380D02*
X90135714Y-76852380D01*
X89802380Y-77233333D01*
X89945238Y-77233333D01*
X90040476Y-77280952D01*
X90088095Y-77328571D01*
X90135714Y-77423809D01*
X90135714Y-77661904D01*
X90088095Y-77757142D01*
X90040476Y-77804761D01*
X89945238Y-77852380D01*
X89659523Y-77852380D01*
X89564285Y-77804761D01*
X89516666Y-77757142D01*
%TO.C,C17*%
X118157142Y-57007142D02*
X118109523Y-57054761D01*
X117966666Y-57102380D01*
X117871428Y-57102380D01*
X117728571Y-57054761D01*
X117633333Y-56959523D01*
X117585714Y-56864285D01*
X117538095Y-56673809D01*
X117538095Y-56530952D01*
X117585714Y-56340476D01*
X117633333Y-56245238D01*
X117728571Y-56150000D01*
X117871428Y-56102380D01*
X117966666Y-56102380D01*
X118109523Y-56150000D01*
X118157142Y-56197619D01*
X119109523Y-57102380D02*
X118538095Y-57102380D01*
X118823809Y-57102380D02*
X118823809Y-56102380D01*
X118728571Y-56245238D01*
X118633333Y-56340476D01*
X118538095Y-56388095D01*
X119442857Y-56102380D02*
X120109523Y-56102380D01*
X119680952Y-57102380D01*
%TO.C,U4*%
X111638095Y-101252380D02*
X111638095Y-102061904D01*
X111685714Y-102157142D01*
X111733333Y-102204761D01*
X111828571Y-102252380D01*
X112019047Y-102252380D01*
X112114285Y-102204761D01*
X112161904Y-102157142D01*
X112209523Y-102061904D01*
X112209523Y-101252380D01*
X113114285Y-101585714D02*
X113114285Y-102252380D01*
X112876190Y-101204761D02*
X112638095Y-101919047D01*
X113257142Y-101919047D01*
%TO.C,F2*%
X92782248Y-92935657D02*
X92501117Y-92756558D01*
X92219674Y-93198334D02*
X92756974Y-92354943D01*
X93158589Y-92610799D01*
X93388548Y-92870222D02*
X93454295Y-92855647D01*
X93560204Y-92866656D01*
X93761011Y-92994585D01*
X93815749Y-93085918D01*
X93830325Y-93151665D01*
X93819315Y-93257574D01*
X93768143Y-93337897D01*
X93651225Y-93432795D01*
X92862258Y-93607705D01*
X93384358Y-93940319D01*
%TO.C,C15*%
X90757142Y-79157142D02*
X90709523Y-79204761D01*
X90566666Y-79252380D01*
X90471428Y-79252380D01*
X90328571Y-79204761D01*
X90233333Y-79109523D01*
X90185714Y-79014285D01*
X90138095Y-78823809D01*
X90138095Y-78680952D01*
X90185714Y-78490476D01*
X90233333Y-78395238D01*
X90328571Y-78300000D01*
X90471428Y-78252380D01*
X90566666Y-78252380D01*
X90709523Y-78300000D01*
X90757142Y-78347619D01*
X91709523Y-79252380D02*
X91138095Y-79252380D01*
X91423809Y-79252380D02*
X91423809Y-78252380D01*
X91328571Y-78395238D01*
X91233333Y-78490476D01*
X91138095Y-78538095D01*
X92614285Y-78252380D02*
X92138095Y-78252380D01*
X92090476Y-78728571D01*
X92138095Y-78680952D01*
X92233333Y-78633333D01*
X92471428Y-78633333D01*
X92566666Y-78680952D01*
X92614285Y-78728571D01*
X92661904Y-78823809D01*
X92661904Y-79061904D01*
X92614285Y-79157142D01*
X92566666Y-79204761D01*
X92471428Y-79252380D01*
X92233333Y-79252380D01*
X92138095Y-79204761D01*
X92090476Y-79157142D01*
%TO.C,J3*%
X106166666Y-110852380D02*
X106166666Y-111566666D01*
X106119047Y-111709523D01*
X106023809Y-111804761D01*
X105880952Y-111852380D01*
X105785714Y-111852380D01*
X106547619Y-110852380D02*
X107166666Y-110852380D01*
X106833333Y-111233333D01*
X106976190Y-111233333D01*
X107071428Y-111280952D01*
X107119047Y-111328571D01*
X107166666Y-111423809D01*
X107166666Y-111661904D01*
X107119047Y-111757142D01*
X107071428Y-111804761D01*
X106976190Y-111852380D01*
X106690476Y-111852380D01*
X106595238Y-111804761D01*
X106547619Y-111757142D01*
%TO.C,C16*%
X103157142Y-73207142D02*
X103109523Y-73254761D01*
X102966666Y-73302380D01*
X102871428Y-73302380D01*
X102728571Y-73254761D01*
X102633333Y-73159523D01*
X102585714Y-73064285D01*
X102538095Y-72873809D01*
X102538095Y-72730952D01*
X102585714Y-72540476D01*
X102633333Y-72445238D01*
X102728571Y-72350000D01*
X102871428Y-72302380D01*
X102966666Y-72302380D01*
X103109523Y-72350000D01*
X103157142Y-72397619D01*
X104109523Y-73302380D02*
X103538095Y-73302380D01*
X103823809Y-73302380D02*
X103823809Y-72302380D01*
X103728571Y-72445238D01*
X103633333Y-72540476D01*
X103538095Y-72588095D01*
X104966666Y-72302380D02*
X104776190Y-72302380D01*
X104680952Y-72350000D01*
X104633333Y-72397619D01*
X104538095Y-72540476D01*
X104490476Y-72730952D01*
X104490476Y-73111904D01*
X104538095Y-73207142D01*
X104585714Y-73254761D01*
X104680952Y-73302380D01*
X104871428Y-73302380D01*
X104966666Y-73254761D01*
X105014285Y-73207142D01*
X105061904Y-73111904D01*
X105061904Y-72873809D01*
X105014285Y-72778571D01*
X104966666Y-72730952D01*
X104871428Y-72683333D01*
X104680952Y-72683333D01*
X104585714Y-72730952D01*
X104538095Y-72778571D01*
X104490476Y-72873809D01*
%TO.C,U2*%
X97226437Y-70158759D02*
X97226437Y-70968283D01*
X97274056Y-71063521D01*
X97321675Y-71111140D01*
X97416913Y-71158759D01*
X97607389Y-71158759D01*
X97702627Y-71111140D01*
X97750246Y-71063521D01*
X97797865Y-70968283D01*
X97797865Y-70158759D01*
X98226437Y-70253998D02*
X98274056Y-70206379D01*
X98369294Y-70158759D01*
X98607389Y-70158759D01*
X98702627Y-70206379D01*
X98750246Y-70253998D01*
X98797865Y-70349236D01*
X98797865Y-70444474D01*
X98750246Y-70587331D01*
X98178818Y-71158759D01*
X98797865Y-71158759D01*
%TO.C,C19*%
X99857142Y-51507142D02*
X99809523Y-51554761D01*
X99666666Y-51602380D01*
X99571428Y-51602380D01*
X99428571Y-51554761D01*
X99333333Y-51459523D01*
X99285714Y-51364285D01*
X99238095Y-51173809D01*
X99238095Y-51030952D01*
X99285714Y-50840476D01*
X99333333Y-50745238D01*
X99428571Y-50650000D01*
X99571428Y-50602380D01*
X99666666Y-50602380D01*
X99809523Y-50650000D01*
X99857142Y-50697619D01*
X100809523Y-51602380D02*
X100238095Y-51602380D01*
X100523809Y-51602380D02*
X100523809Y-50602380D01*
X100428571Y-50745238D01*
X100333333Y-50840476D01*
X100238095Y-50888095D01*
X101285714Y-51602380D02*
X101476190Y-51602380D01*
X101571428Y-51554761D01*
X101619047Y-51507142D01*
X101714285Y-51364285D01*
X101761904Y-51173809D01*
X101761904Y-50792857D01*
X101714285Y-50697619D01*
X101666666Y-50650000D01*
X101571428Y-50602380D01*
X101380952Y-50602380D01*
X101285714Y-50650000D01*
X101238095Y-50697619D01*
X101190476Y-50792857D01*
X101190476Y-51030952D01*
X101238095Y-51126190D01*
X101285714Y-51173809D01*
X101380952Y-51221428D01*
X101571428Y-51221428D01*
X101666666Y-51173809D01*
X101714285Y-51126190D01*
X101761904Y-51030952D01*
%TO.C,C12*%
X115857142Y-55657142D02*
X115809523Y-55704761D01*
X115666666Y-55752380D01*
X115571428Y-55752380D01*
X115428571Y-55704761D01*
X115333333Y-55609523D01*
X115285714Y-55514285D01*
X115238095Y-55323809D01*
X115238095Y-55180952D01*
X115285714Y-54990476D01*
X115333333Y-54895238D01*
X115428571Y-54800000D01*
X115571428Y-54752380D01*
X115666666Y-54752380D01*
X115809523Y-54800000D01*
X115857142Y-54847619D01*
X116809523Y-55752380D02*
X116238095Y-55752380D01*
X116523809Y-55752380D02*
X116523809Y-54752380D01*
X116428571Y-54895238D01*
X116333333Y-54990476D01*
X116238095Y-55038095D01*
X117190476Y-54847619D02*
X117238095Y-54800000D01*
X117333333Y-54752380D01*
X117571428Y-54752380D01*
X117666666Y-54800000D01*
X117714285Y-54847619D01*
X117761904Y-54942857D01*
X117761904Y-55038095D01*
X117714285Y-55180952D01*
X117142857Y-55752380D01*
X117761904Y-55752380D01*
%TO.C,C5*%
X94733333Y-64057142D02*
X94685714Y-64104761D01*
X94542857Y-64152380D01*
X94447619Y-64152380D01*
X94304761Y-64104761D01*
X94209523Y-64009523D01*
X94161904Y-63914285D01*
X94114285Y-63723809D01*
X94114285Y-63580952D01*
X94161904Y-63390476D01*
X94209523Y-63295238D01*
X94304761Y-63200000D01*
X94447619Y-63152380D01*
X94542857Y-63152380D01*
X94685714Y-63200000D01*
X94733333Y-63247619D01*
X95638095Y-63152380D02*
X95161904Y-63152380D01*
X95114285Y-63628571D01*
X95161904Y-63580952D01*
X95257142Y-63533333D01*
X95495238Y-63533333D01*
X95590476Y-63580952D01*
X95638095Y-63628571D01*
X95685714Y-63723809D01*
X95685714Y-63961904D01*
X95638095Y-64057142D01*
X95590476Y-64104761D01*
X95495238Y-64152380D01*
X95257142Y-64152380D01*
X95161904Y-64104761D01*
X95114285Y-64057142D01*
%TO.C,C18*%
X116657142Y-66657142D02*
X116609523Y-66704761D01*
X116466666Y-66752380D01*
X116371428Y-66752380D01*
X116228571Y-66704761D01*
X116133333Y-66609523D01*
X116085714Y-66514285D01*
X116038095Y-66323809D01*
X116038095Y-66180952D01*
X116085714Y-65990476D01*
X116133333Y-65895238D01*
X116228571Y-65800000D01*
X116371428Y-65752380D01*
X116466666Y-65752380D01*
X116609523Y-65800000D01*
X116657142Y-65847619D01*
X117609523Y-66752380D02*
X117038095Y-66752380D01*
X117323809Y-66752380D02*
X117323809Y-65752380D01*
X117228571Y-65895238D01*
X117133333Y-65990476D01*
X117038095Y-66038095D01*
X118180952Y-66180952D02*
X118085714Y-66133333D01*
X118038095Y-66085714D01*
X117990476Y-65990476D01*
X117990476Y-65942857D01*
X118038095Y-65847619D01*
X118085714Y-65800000D01*
X118180952Y-65752380D01*
X118371428Y-65752380D01*
X118466666Y-65800000D01*
X118514285Y-65847619D01*
X118561904Y-65942857D01*
X118561904Y-65990476D01*
X118514285Y-66085714D01*
X118466666Y-66133333D01*
X118371428Y-66180952D01*
X118180952Y-66180952D01*
X118085714Y-66228571D01*
X118038095Y-66276190D01*
X117990476Y-66371428D01*
X117990476Y-66561904D01*
X118038095Y-66657142D01*
X118085714Y-66704761D01*
X118180952Y-66752380D01*
X118371428Y-66752380D01*
X118466666Y-66704761D01*
X118514285Y-66657142D01*
X118561904Y-66561904D01*
X118561904Y-66371428D01*
X118514285Y-66276190D01*
X118466666Y-66228571D01*
X118371428Y-66180952D01*
%TO.C,J2*%
X82513105Y-98459042D02*
X82129319Y-99061465D01*
X82012400Y-99156364D01*
X81880906Y-99185515D01*
X81734836Y-99148920D01*
X81654513Y-99097748D01*
X82823387Y-98769637D02*
X82889134Y-98755061D01*
X82995042Y-98766071D01*
X83195850Y-98893999D01*
X83250587Y-98985332D01*
X83265163Y-99051079D01*
X83254153Y-99156988D01*
X83202982Y-99237311D01*
X83086063Y-99332210D01*
X82297097Y-99507119D01*
X82819196Y-99839733D01*
%TO.C,C6*%
X107721675Y-59463521D02*
X107674056Y-59511140D01*
X107531199Y-59558759D01*
X107435961Y-59558759D01*
X107293103Y-59511140D01*
X107197865Y-59415902D01*
X107150246Y-59320664D01*
X107102627Y-59130188D01*
X107102627Y-58987331D01*
X107150246Y-58796855D01*
X107197865Y-58701617D01*
X107293103Y-58606379D01*
X107435961Y-58558759D01*
X107531199Y-58558759D01*
X107674056Y-58606379D01*
X107721675Y-58653998D01*
X108578818Y-58558759D02*
X108388342Y-58558759D01*
X108293103Y-58606379D01*
X108245484Y-58653998D01*
X108150246Y-58796855D01*
X108102627Y-58987331D01*
X108102627Y-59368283D01*
X108150246Y-59463521D01*
X108197865Y-59511140D01*
X108293103Y-59558759D01*
X108483580Y-59558759D01*
X108578818Y-59511140D01*
X108626437Y-59463521D01*
X108674056Y-59368283D01*
X108674056Y-59130188D01*
X108626437Y-59034950D01*
X108578818Y-58987331D01*
X108483580Y-58939712D01*
X108293103Y-58939712D01*
X108197865Y-58987331D01*
X108150246Y-59034950D01*
X108102627Y-59130188D01*
%TO.C,F1*%
X120666666Y-42378571D02*
X120333333Y-42378571D01*
X120333333Y-42902380D02*
X120333333Y-41902380D01*
X120809523Y-41902380D01*
X121714285Y-42902380D02*
X121142857Y-42902380D01*
X121428571Y-42902380D02*
X121428571Y-41902380D01*
X121333333Y-42045238D01*
X121238095Y-42140476D01*
X121142857Y-42188095D01*
%TO.C,J1*%
X105866666Y-33102380D02*
X105866666Y-33816666D01*
X105819047Y-33959523D01*
X105723809Y-34054761D01*
X105580952Y-34102380D01*
X105485714Y-34102380D01*
X106866666Y-34102380D02*
X106295238Y-34102380D01*
X106580952Y-34102380D02*
X106580952Y-33102380D01*
X106485714Y-33245238D01*
X106390476Y-33340476D01*
X106295238Y-33388095D01*
%TO.C,Y1*%
X91712151Y-71282569D02*
X91712151Y-71758759D01*
X91378818Y-70758759D02*
X91712151Y-71282569D01*
X92045484Y-70758759D01*
X92902627Y-71758759D02*
X92331199Y-71758759D01*
X92616913Y-71758759D02*
X92616913Y-70758759D01*
X92521675Y-70901617D01*
X92426437Y-70996855D01*
X92331199Y-71044474D01*
%TO.C,C11*%
X101907142Y-52907142D02*
X101859523Y-52954761D01*
X101716666Y-53002380D01*
X101621428Y-53002380D01*
X101478571Y-52954761D01*
X101383333Y-52859523D01*
X101335714Y-52764285D01*
X101288095Y-52573809D01*
X101288095Y-52430952D01*
X101335714Y-52240476D01*
X101383333Y-52145238D01*
X101478571Y-52050000D01*
X101621428Y-52002380D01*
X101716666Y-52002380D01*
X101859523Y-52050000D01*
X101907142Y-52097619D01*
X102859523Y-53002380D02*
X102288095Y-53002380D01*
X102573809Y-53002380D02*
X102573809Y-52002380D01*
X102478571Y-52145238D01*
X102383333Y-52240476D01*
X102288095Y-52288095D01*
X103811904Y-53002380D02*
X103240476Y-53002380D01*
X103526190Y-53002380D02*
X103526190Y-52002380D01*
X103430952Y-52145238D01*
X103335714Y-52240476D01*
X103240476Y-52288095D01*
%TO.C,C20*%
X120407142Y-58357142D02*
X120359523Y-58404761D01*
X120216666Y-58452380D01*
X120121428Y-58452380D01*
X119978571Y-58404761D01*
X119883333Y-58309523D01*
X119835714Y-58214285D01*
X119788095Y-58023809D01*
X119788095Y-57880952D01*
X119835714Y-57690476D01*
X119883333Y-57595238D01*
X119978571Y-57500000D01*
X120121428Y-57452380D01*
X120216666Y-57452380D01*
X120359523Y-57500000D01*
X120407142Y-57547619D01*
X120788095Y-57547619D02*
X120835714Y-57500000D01*
X120930952Y-57452380D01*
X121169047Y-57452380D01*
X121264285Y-57500000D01*
X121311904Y-57547619D01*
X121359523Y-57642857D01*
X121359523Y-57738095D01*
X121311904Y-57880952D01*
X120740476Y-58452380D01*
X121359523Y-58452380D01*
X121978571Y-57452380D02*
X122073809Y-57452380D01*
X122169047Y-57500000D01*
X122216666Y-57547619D01*
X122264285Y-57642857D01*
X122311904Y-57833333D01*
X122311904Y-58071428D01*
X122264285Y-58261904D01*
X122216666Y-58357142D01*
X122169047Y-58404761D01*
X122073809Y-58452380D01*
X121978571Y-58452380D01*
X121883333Y-58404761D01*
X121835714Y-58357142D01*
X121788095Y-58261904D01*
X121740476Y-58071428D01*
X121740476Y-57833333D01*
X121788095Y-57642857D01*
X121835714Y-57547619D01*
X121883333Y-57500000D01*
X121978571Y-57452380D01*
%TO.C,C2*%
X90267542Y-92711661D02*
X90201794Y-92726237D01*
X90055724Y-92689641D01*
X89975401Y-92638470D01*
X89880502Y-92521551D01*
X89851351Y-92390057D01*
X89862361Y-92284148D01*
X89924542Y-92097916D01*
X90001299Y-91977432D01*
X90143803Y-91842371D01*
X90235136Y-91787634D01*
X90366631Y-91758483D01*
X90512701Y-91795078D01*
X90593024Y-91846250D01*
X90687923Y-91963168D01*
X90702498Y-92028915D01*
X91023790Y-92233601D02*
X91089538Y-92219025D01*
X91195446Y-92230035D01*
X91396254Y-92357963D01*
X91450991Y-92449296D01*
X91465567Y-92515044D01*
X91454557Y-92620952D01*
X91403386Y-92701275D01*
X91286467Y-92796174D01*
X90497501Y-92971084D01*
X91019600Y-93303698D01*
%TO.C,R6*%
X109321675Y-48558759D02*
X108988342Y-48082569D01*
X108750246Y-48558759D02*
X108750246Y-47558759D01*
X109131199Y-47558759D01*
X109226437Y-47606379D01*
X109274056Y-47653998D01*
X109321675Y-47749236D01*
X109321675Y-47892093D01*
X109274056Y-47987331D01*
X109226437Y-48034950D01*
X109131199Y-48082569D01*
X108750246Y-48082569D01*
X110178818Y-47558759D02*
X109988342Y-47558759D01*
X109893103Y-47606379D01*
X109845484Y-47653998D01*
X109750246Y-47796855D01*
X109702627Y-47987331D01*
X109702627Y-48368283D01*
X109750246Y-48463521D01*
X109797865Y-48511140D01*
X109893103Y-48558759D01*
X110083580Y-48558759D01*
X110178818Y-48511140D01*
X110226437Y-48463521D01*
X110274056Y-48368283D01*
X110274056Y-48130188D01*
X110226437Y-48034950D01*
X110178818Y-47987331D01*
X110083580Y-47939712D01*
X109893103Y-47939712D01*
X109797865Y-47987331D01*
X109750246Y-48034950D01*
X109702627Y-48130188D01*
%TO.C,C7*%
X107183333Y-102807142D02*
X107135714Y-102854761D01*
X106992857Y-102902380D01*
X106897619Y-102902380D01*
X106754761Y-102854761D01*
X106659523Y-102759523D01*
X106611904Y-102664285D01*
X106564285Y-102473809D01*
X106564285Y-102330952D01*
X106611904Y-102140476D01*
X106659523Y-102045238D01*
X106754761Y-101950000D01*
X106897619Y-101902380D01*
X106992857Y-101902380D01*
X107135714Y-101950000D01*
X107183333Y-101997619D01*
X107516666Y-101902380D02*
X108183333Y-101902380D01*
X107754761Y-102902380D01*
%TO.C,U3*%
X95051651Y-93828771D02*
X94616694Y-94511517D01*
X94605684Y-94617425D01*
X94620260Y-94683172D01*
X94674997Y-94774505D01*
X94835643Y-94876848D01*
X94941552Y-94887858D01*
X95007299Y-94873282D01*
X95098632Y-94818545D01*
X95533589Y-94135799D01*
X95854881Y-94340485D02*
X96376980Y-94673099D01*
X95891164Y-94815291D01*
X96011649Y-94892048D01*
X96066386Y-94983381D01*
X96080962Y-95049128D01*
X96069952Y-95155037D01*
X95942024Y-95355845D01*
X95850691Y-95410582D01*
X95784944Y-95425158D01*
X95679035Y-95414148D01*
X95438066Y-95260634D01*
X95383329Y-95169301D01*
X95368753Y-95103554D01*
%TO.C,C10*%
X120807142Y-45807142D02*
X120759523Y-45854761D01*
X120616666Y-45902380D01*
X120521428Y-45902380D01*
X120378571Y-45854761D01*
X120283333Y-45759523D01*
X120235714Y-45664285D01*
X120188095Y-45473809D01*
X120188095Y-45330952D01*
X120235714Y-45140476D01*
X120283333Y-45045238D01*
X120378571Y-44950000D01*
X120521428Y-44902380D01*
X120616666Y-44902380D01*
X120759523Y-44950000D01*
X120807142Y-44997619D01*
X121759523Y-45902380D02*
X121188095Y-45902380D01*
X121473809Y-45902380D02*
X121473809Y-44902380D01*
X121378571Y-45045238D01*
X121283333Y-45140476D01*
X121188095Y-45188095D01*
X122378571Y-44902380D02*
X122473809Y-44902380D01*
X122569047Y-44950000D01*
X122616666Y-44997619D01*
X122664285Y-45092857D01*
X122711904Y-45283333D01*
X122711904Y-45521428D01*
X122664285Y-45711904D01*
X122616666Y-45807142D01*
X122569047Y-45854761D01*
X122473809Y-45902380D01*
X122378571Y-45902380D01*
X122283333Y-45854761D01*
X122235714Y-45807142D01*
X122188095Y-45711904D01*
X122140476Y-45521428D01*
X122140476Y-45283333D01*
X122188095Y-45092857D01*
X122235714Y-44997619D01*
X122283333Y-44950000D01*
X122378571Y-44902380D01*
%TO.C,C13*%
X92845484Y-77763521D02*
X92797865Y-77811140D01*
X92655008Y-77858759D01*
X92559770Y-77858759D01*
X92416913Y-77811140D01*
X92321675Y-77715902D01*
X92274056Y-77620664D01*
X92226437Y-77430188D01*
X92226437Y-77287331D01*
X92274056Y-77096855D01*
X92321675Y-77001617D01*
X92416913Y-76906379D01*
X92559770Y-76858759D01*
X92655008Y-76858759D01*
X92797865Y-76906379D01*
X92845484Y-76953998D01*
X93797865Y-77858759D02*
X93226437Y-77858759D01*
X93512151Y-77858759D02*
X93512151Y-76858759D01*
X93416913Y-77001617D01*
X93321675Y-77096855D01*
X93226437Y-77144474D01*
X94131199Y-76858759D02*
X94750246Y-76858759D01*
X94416913Y-77239712D01*
X94559770Y-77239712D01*
X94655008Y-77287331D01*
X94702627Y-77334950D01*
X94750246Y-77430188D01*
X94750246Y-77668283D01*
X94702627Y-77763521D01*
X94655008Y-77811140D01*
X94559770Y-77858759D01*
X94274056Y-77858759D01*
X94178818Y-77811140D01*
X94131199Y-77763521D01*
%TO.C,C4*%
X94821675Y-72357142D02*
X94774056Y-72404761D01*
X94631199Y-72452380D01*
X94535961Y-72452380D01*
X94393103Y-72404761D01*
X94297865Y-72309523D01*
X94250246Y-72214285D01*
X94202627Y-72023809D01*
X94202627Y-71880952D01*
X94250246Y-71690476D01*
X94297865Y-71595238D01*
X94393103Y-71500000D01*
X94535961Y-71452380D01*
X94631199Y-71452380D01*
X94774056Y-71500000D01*
X94821675Y-71547619D01*
X95678818Y-71785714D02*
X95678818Y-72452380D01*
X95440722Y-71404761D02*
X95202627Y-72119047D01*
X95821675Y-72119047D01*
%TO.C,R8*%
X105721675Y-53058759D02*
X105388342Y-52582569D01*
X105150246Y-53058759D02*
X105150246Y-52058759D01*
X105531199Y-52058759D01*
X105626437Y-52106379D01*
X105674056Y-52153998D01*
X105721675Y-52249236D01*
X105721675Y-52392093D01*
X105674056Y-52487331D01*
X105626437Y-52534950D01*
X105531199Y-52582569D01*
X105150246Y-52582569D01*
X106293103Y-52487331D02*
X106197865Y-52439712D01*
X106150246Y-52392093D01*
X106102627Y-52296855D01*
X106102627Y-52249236D01*
X106150246Y-52153998D01*
X106197865Y-52106379D01*
X106293103Y-52058759D01*
X106483580Y-52058759D01*
X106578818Y-52106379D01*
X106626437Y-52153998D01*
X106674056Y-52249236D01*
X106674056Y-52296855D01*
X106626437Y-52392093D01*
X106578818Y-52439712D01*
X106483580Y-52487331D01*
X106293103Y-52487331D01*
X106197865Y-52534950D01*
X106150246Y-52582569D01*
X106102627Y-52677807D01*
X106102627Y-52868283D01*
X106150246Y-52963521D01*
X106197865Y-53011140D01*
X106293103Y-53058759D01*
X106483580Y-53058759D01*
X106578818Y-53011140D01*
X106626437Y-52963521D01*
X106674056Y-52868283D01*
X106674056Y-52677807D01*
X106626437Y-52582569D01*
X106578818Y-52534950D01*
X106483580Y-52487331D01*
%TO.C,C14*%
X116657142Y-65157142D02*
X116609523Y-65204761D01*
X116466666Y-65252380D01*
X116371428Y-65252380D01*
X116228571Y-65204761D01*
X116133333Y-65109523D01*
X116085714Y-65014285D01*
X116038095Y-64823809D01*
X116038095Y-64680952D01*
X116085714Y-64490476D01*
X116133333Y-64395238D01*
X116228571Y-64300000D01*
X116371428Y-64252380D01*
X116466666Y-64252380D01*
X116609523Y-64300000D01*
X116657142Y-64347619D01*
X117609523Y-65252380D02*
X117038095Y-65252380D01*
X117323809Y-65252380D02*
X117323809Y-64252380D01*
X117228571Y-64395238D01*
X117133333Y-64490476D01*
X117038095Y-64538095D01*
X118466666Y-64585714D02*
X118466666Y-65252380D01*
X118228571Y-64204761D02*
X117990476Y-64919047D01*
X118609523Y-64919047D01*
%TO.C,R2*%
X102883333Y-40846001D02*
X102550000Y-40369811D01*
X102311904Y-40846001D02*
X102311904Y-39846001D01*
X102692857Y-39846001D01*
X102788095Y-39893621D01*
X102835714Y-39941240D01*
X102883333Y-40036478D01*
X102883333Y-40179335D01*
X102835714Y-40274573D01*
X102788095Y-40322192D01*
X102692857Y-40369811D01*
X102311904Y-40369811D01*
X103264285Y-39941240D02*
X103311904Y-39893621D01*
X103407142Y-39846001D01*
X103645238Y-39846001D01*
X103740476Y-39893621D01*
X103788095Y-39941240D01*
X103835714Y-40036478D01*
X103835714Y-40131716D01*
X103788095Y-40274573D01*
X103216666Y-40846001D01*
X103835714Y-40846001D01*
%TO.C,R7*%
X109321675Y-50058759D02*
X108988342Y-49582569D01*
X108750246Y-50058759D02*
X108750246Y-49058759D01*
X109131199Y-49058759D01*
X109226437Y-49106379D01*
X109274056Y-49153998D01*
X109321675Y-49249236D01*
X109321675Y-49392093D01*
X109274056Y-49487331D01*
X109226437Y-49534950D01*
X109131199Y-49582569D01*
X108750246Y-49582569D01*
X109655008Y-49058759D02*
X110321675Y-49058759D01*
X109893103Y-50058759D01*
%TO.C,F4*%
X126780490Y-96118857D02*
X126499360Y-96297957D01*
X126780803Y-96739733D02*
X126243503Y-95896342D01*
X126645118Y-95640485D01*
X127506963Y-95486659D02*
X127865163Y-96048920D01*
X127101470Y-95293295D02*
X127284448Y-96023646D01*
X127806548Y-95691032D01*
D11*
%TO.C,U1*%
X110340000Y-41700000D02*
X110340000Y-40900000D01*
X113460000Y-41700000D02*
X113460000Y-42500000D01*
X110340000Y-41700000D02*
X110340000Y-42500000D01*
X113460000Y-41700000D02*
X113460000Y-39900000D01*
%TO.C,R10*%
X136863581Y-93252109D02*
X137246589Y-93008106D01*
X137653411Y-94491894D02*
X138036419Y-94247891D01*
%TO.C,R9*%
X117172936Y-104215000D02*
X117627064Y-104215000D01*
X117172936Y-105685000D02*
X117627064Y-105685000D01*
%TO.C,R5*%
X101153411Y-104908106D02*
X101536419Y-105152109D01*
X100363581Y-106147891D02*
X100746589Y-106391894D01*
%TO.C,R4*%
X119572936Y-38335000D02*
X120027064Y-38335000D01*
X119572936Y-36865000D02*
X120027064Y-36865000D01*
%TO.C,C22*%
X136423356Y-92570698D02*
X136864031Y-92289957D01*
X135633525Y-91330913D02*
X136074200Y-91050172D01*
%TO.C,C8*%
X117138748Y-103485000D02*
X117661252Y-103485000D01*
X117138748Y-102015000D02*
X117661252Y-102015000D01*
%TO.C,C3*%
X100024578Y-106689737D02*
X100465253Y-106970478D01*
X99234747Y-107929522D02*
X99675422Y-108210263D01*
%TO.C,C1*%
X119538748Y-35835000D02*
X120061252Y-35835000D01*
X119538748Y-34365000D02*
X120061252Y-34365000D01*
%TO.C,C21*%
X127179522Y-99484747D02*
X127460263Y-99925422D01*
X125939737Y-100274578D02*
X126220478Y-100715253D01*
%TO.C,J4*%
X126110782Y-103248326D02*
X127174635Y-104918242D01*
X139895618Y-97489924D02*
X144484156Y-104692487D01*
X132085553Y-112626839D02*
X144500275Y-104717789D01*
X126110782Y-103248326D02*
X138525504Y-95339276D01*
X128471753Y-100700815D02*
X129162099Y-100853861D01*
X129162099Y-100853861D02*
X129315145Y-100163516D01*
X127480896Y-105398975D02*
X132069434Y-112601538D01*
X129315145Y-100163516D02*
X128471753Y-100700815D01*
X139589357Y-97009191D02*
X138525504Y-95339276D01*
%TO.C,C9*%
X94903342Y-73995127D02*
X94903342Y-74517631D01*
X96373342Y-73995127D02*
X96373342Y-74517631D01*
%TO.C,U5*%
X132215691Y-96161813D02*
X131785851Y-95487099D01*
X129584309Y-97838187D02*
X129154470Y-97163474D01*
X132215691Y-96161813D02*
X132645530Y-96836526D01*
X129584309Y-97838187D02*
X130551449Y-99356292D01*
%TO.C,F3*%
X108840000Y-105258578D02*
X108840000Y-104741422D01*
X110260000Y-105258578D02*
X110260000Y-104741422D01*
%TO.C,FB1*%
X117027064Y-43210000D02*
X116572936Y-43210000D01*
X117027064Y-41740000D02*
X116572936Y-41740000D01*
%TO.C,R1*%
X106372936Y-43135000D02*
X106827064Y-43135000D01*
X106372936Y-41665000D02*
X106827064Y-41665000D01*
%TO.C,R3*%
X88653342Y-74029315D02*
X88653342Y-74483443D01*
X90123342Y-74029315D02*
X90123342Y-74483443D01*
%TO.C,C17*%
X112473342Y-56817631D02*
X112473342Y-56295127D01*
X111003342Y-56817631D02*
X111003342Y-56295127D01*
%TO.C,U4*%
X110840000Y-104600000D02*
X110840000Y-103800000D01*
X113960000Y-104600000D02*
X113960000Y-105400000D01*
X110840000Y-104600000D02*
X110840000Y-106400000D01*
X113960000Y-104600000D02*
X113960000Y-103800000D01*
%TO.C,F2*%
X90462258Y-95636600D02*
X90740126Y-95200435D01*
X91659874Y-96399565D02*
X91937742Y-95963400D01*
%TO.C,C15*%
X90703342Y-73995127D02*
X90703342Y-74517631D01*
X92173342Y-73995127D02*
X92173342Y-74517631D01*
%TO.C,J3*%
X107688342Y-110506379D02*
X107688342Y-112506379D01*
X117088342Y-114406379D02*
X117088342Y-116306379D01*
X107688342Y-116306379D02*
X117088342Y-116306379D01*
X107688342Y-114406379D02*
X107688342Y-116306379D01*
X117088342Y-110506379D02*
X117088342Y-112506379D01*
%TO.C,C16*%
X104977090Y-71716379D02*
X105499594Y-71716379D01*
X104977090Y-70246379D02*
X105499594Y-70246379D01*
%TO.C,U2*%
X104998342Y-68891379D02*
X104998342Y-69366379D01*
X104998342Y-62146379D02*
X104523342Y-62146379D01*
X97778342Y-68891379D02*
X97778342Y-69366379D01*
X104998342Y-69366379D02*
X104523342Y-69366379D01*
X97778342Y-62146379D02*
X98253342Y-62146379D01*
X104998342Y-62621379D02*
X104998342Y-62146379D01*
X97778342Y-62621379D02*
X97778342Y-62146379D01*
%TO.C,C19*%
X101323342Y-56217631D02*
X101323342Y-55695127D01*
X99853342Y-56217631D02*
X99853342Y-55695127D01*
%TO.C,C12*%
X110323342Y-56817631D02*
X110323342Y-56295127D01*
X108853342Y-56817631D02*
X108853342Y-56295127D01*
%TO.C,C5*%
X95723342Y-66467631D02*
X95723342Y-65945127D01*
X94253342Y-66467631D02*
X94253342Y-65945127D01*
%TO.C,C18*%
X107227090Y-66171379D02*
X107749594Y-66171379D01*
X107227090Y-67641379D02*
X107749594Y-67641379D01*
%TO.C,J2*%
X97295790Y-105515040D02*
X92707251Y-112717603D01*
X97602051Y-105034307D02*
X98665904Y-103364391D01*
X86251182Y-95455341D02*
X85187329Y-97125256D01*
X89557801Y-96518483D02*
X89710847Y-97208829D01*
X90401192Y-97055783D02*
X89557801Y-96518483D01*
X80276410Y-104833854D02*
X92691132Y-112742904D01*
X89710847Y-97208829D02*
X90401192Y-97055783D01*
X86251182Y-95455341D02*
X98665904Y-103364391D01*
X84881068Y-97605989D02*
X80292529Y-104808552D01*
%TO.C,C6*%
X106623342Y-58445127D02*
X106623342Y-58967631D01*
X105153342Y-58445127D02*
X105153342Y-58967631D01*
%TO.C,F1*%
X116541422Y-41110000D02*
X117058578Y-41110000D01*
X116541422Y-39690000D02*
X117058578Y-39690000D01*
%TO.C,J1*%
X107688342Y-35556379D02*
X107688342Y-33556379D01*
X117088342Y-35556379D02*
X117088342Y-33556379D01*
X117088342Y-29756379D02*
X107688342Y-29756379D01*
X107688342Y-31656379D02*
X107688342Y-29756379D01*
X117088342Y-31656379D02*
X117088342Y-29756379D01*
%TO.C,Y1*%
X90513342Y-70356379D02*
X93813342Y-70356379D01*
X93813342Y-70356379D02*
X93813342Y-66356379D01*
%TO.C,C11*%
X103423342Y-55617631D02*
X103423342Y-55095127D01*
X101953342Y-55617631D02*
X101953342Y-55095127D01*
%TO.C,C20*%
X114623342Y-56817631D02*
X114623342Y-56295127D01*
X113153342Y-56817631D02*
X113153342Y-56295127D01*
%TO.C,C2*%
X88820478Y-93984747D02*
X88539737Y-94425422D01*
X90060263Y-94774578D02*
X89779522Y-95215253D01*
%TO.C,R6*%
X108661278Y-52141379D02*
X109115406Y-52141379D01*
X108661278Y-50671379D02*
X109115406Y-50671379D01*
%TO.C,C7*%
X108135000Y-104738748D02*
X108135000Y-105261252D01*
X106665000Y-104738748D02*
X106665000Y-105261252D01*
%TO.C,U3*%
X92584309Y-96261813D02*
X91617170Y-97779917D01*
X95215691Y-97938187D02*
X95645530Y-97263474D01*
X95215691Y-97938187D02*
X94785851Y-98612901D01*
X92584309Y-96261813D02*
X93014149Y-95587099D01*
%TO.C,C10*%
X116538748Y-43840000D02*
X117061252Y-43840000D01*
X116538748Y-45310000D02*
X117061252Y-45310000D01*
%TO.C,C13*%
X94273342Y-73995127D02*
X94273342Y-74517631D01*
X92803342Y-73995127D02*
X92803342Y-74517631D01*
%TO.C,C4*%
X95723342Y-69942631D02*
X95723342Y-69420127D01*
X94253342Y-69942631D02*
X94253342Y-69420127D01*
%TO.C,R8*%
X105153342Y-54879315D02*
X105153342Y-55333443D01*
X106623342Y-54879315D02*
X106623342Y-55333443D01*
%TO.C,C14*%
X107227090Y-65491379D02*
X107749594Y-65491379D01*
X107227090Y-64021379D02*
X107749594Y-64021379D01*
%TO.C,R2*%
X106827064Y-41135000D02*
X106372936Y-41135000D01*
X106827064Y-39665000D02*
X106372936Y-39665000D01*
%TO.C,R7*%
X108661278Y-54191379D02*
X109115406Y-54191379D01*
X108661278Y-52721379D02*
X109115406Y-52721379D01*
%TO.C,F4*%
X128140126Y-99499565D02*
X127862258Y-99063400D01*
X129337742Y-98736600D02*
X129059874Y-98300435D01*
%TD*%
M02*
