%TF.GenerationSoftware,KiCad,Pcbnew,(6.0.8)*%
%TF.CreationDate,2022-12-20T01:42:36-08:00*%
%TF.ProjectId,Anduril USB Hub,416e6475-7269-46c2-9055-534220487562,rev?*%
%TF.SameCoordinates,Original*%
%TF.FileFunction,Copper,L1,Top*%
%TF.FilePolarity,Positive*%
%FSLAX46Y46*%
G04 Gerber Fmt 4.6, Leading zero omitted, Abs format (unit mm)*
G04 Created by KiCad (PCBNEW (6.0.8)) date 2022-12-20 01:42:36*
%MOMM*%
%LPD*%
G01*
G04 APERTURE LIST*
G04 Aperture macros list*
%AMRoundRect*
0 Rectangle with rounded corners*
0 $1 Rounding radius*
0 $2 $3 $4 $5 $6 $7 $8 $9 X,Y pos of 4 corners*
0 Add a 4 corners polygon primitive as box body*
4,1,4,$2,$3,$4,$5,$6,$7,$8,$9,$2,$3,0*
0 Add four circle primitives for the rounded corners*
1,1,$1+$1,$2,$3*
1,1,$1+$1,$4,$5*
1,1,$1+$1,$6,$7*
1,1,$1+$1,$8,$9*
0 Add four rect primitives between the rounded corners*
20,1,$1+$1,$2,$3,$4,$5,0*
20,1,$1+$1,$4,$5,$6,$7,0*
20,1,$1+$1,$6,$7,$8,$9,0*
20,1,$1+$1,$8,$9,$2,$3,0*%
%AMHorizOval*
0 Thick line with rounded ends*
0 $1 width*
0 $2 $3 position (X,Y) of the first rounded end (center of the circle)*
0 $4 $5 position (X,Y) of the second rounded end (center of the circle)*
0 Add line between two ends*
20,1,$1,$2,$3,$4,$5,0*
0 Add two circle primitives to create the rounded ends*
1,1,$1,$2,$3*
1,1,$1,$4,$5*%
%AMRotRect*
0 Rectangle, with rotation*
0 The origin of the aperture is its center*
0 $1 length*
0 $2 width*
0 $3 Rotation angle, in degrees counterclockwise*
0 Add horizontal line*
21,1,$1,$2,0,0,$3*%
G04 Aperture macros list end*
%TA.AperFunction,SMDPad,CuDef*%
%ADD10RoundRect,0.150000X-0.150000X0.512500X-0.150000X-0.512500X0.150000X-0.512500X0.150000X0.512500X0*%
%TD*%
%TA.AperFunction,SMDPad,CuDef*%
%ADD11RoundRect,0.250000X0.020395X-0.520567X0.463175X-0.238485X-0.020395X0.520567X-0.463175X0.238485X0*%
%TD*%
%TA.AperFunction,SMDPad,CuDef*%
%ADD12RoundRect,0.250000X-0.262500X-0.450000X0.262500X-0.450000X0.262500X0.450000X-0.262500X0.450000X0*%
%TD*%
%TA.AperFunction,SMDPad,CuDef*%
%ADD13RoundRect,0.250000X-0.463175X-0.238485X-0.020395X-0.520567X0.463175X0.238485X0.020395X0.520567X0*%
%TD*%
%TA.AperFunction,SMDPad,CuDef*%
%ADD14RoundRect,0.250000X0.044369X-0.534936X0.466065X-0.266286X-0.044369X0.534936X-0.466065X0.266286X0*%
%TD*%
%TA.AperFunction,SMDPad,CuDef*%
%ADD15RoundRect,0.250000X-0.250000X-0.475000X0.250000X-0.475000X0.250000X0.475000X-0.250000X0.475000X0*%
%TD*%
%TA.AperFunction,SMDPad,CuDef*%
%ADD16RoundRect,0.250000X-0.466065X-0.266286X-0.044369X-0.534936X0.466065X0.266286X0.044369X0.534936X0*%
%TD*%
%TA.AperFunction,SMDPad,CuDef*%
%ADD17RoundRect,0.250000X-0.534936X-0.044369X-0.266286X-0.466065X0.534936X0.044369X0.266286X0.466065X0*%
%TD*%
%TA.AperFunction,ComponentPad*%
%ADD18RotRect,1.524000X1.524000X32.500000*%
%TD*%
%TA.AperFunction,ComponentPad*%
%ADD19C,1.524000*%
%TD*%
%TA.AperFunction,ComponentPad*%
%ADD20HorizOval,1.600000X-0.268650X0.421696X0.268650X-0.421696X0*%
%TD*%
%TA.AperFunction,SMDPad,CuDef*%
%ADD21RoundRect,0.250000X-0.475000X0.250000X-0.475000X-0.250000X0.475000X-0.250000X0.475000X0.250000X0*%
%TD*%
%TA.AperFunction,SMDPad,CuDef*%
%ADD22RoundRect,0.150000X0.401875X-0.351643X-0.148857X0.512833X-0.401875X0.351643X0.148857X-0.512833X0*%
%TD*%
%TA.AperFunction,SMDPad,CuDef*%
%ADD23RoundRect,0.243750X0.456250X-0.243750X0.456250X0.243750X-0.456250X0.243750X-0.456250X-0.243750X0*%
%TD*%
%TA.AperFunction,SMDPad,CuDef*%
%ADD24RoundRect,0.250000X0.262500X0.450000X-0.262500X0.450000X-0.262500X-0.450000X0.262500X-0.450000X0*%
%TD*%
%TA.AperFunction,SMDPad,CuDef*%
%ADD25RoundRect,0.250000X-0.450000X0.262500X-0.450000X-0.262500X0.450000X-0.262500X0.450000X0.262500X0*%
%TD*%
%TA.AperFunction,SMDPad,CuDef*%
%ADD26RoundRect,0.250000X0.475000X-0.250000X0.475000X0.250000X-0.475000X0.250000X-0.475000X-0.250000X0*%
%TD*%
%TA.AperFunction,SMDPad,CuDef*%
%ADD27RoundRect,0.150000X0.150000X-0.512500X0.150000X0.512500X-0.150000X0.512500X-0.150000X-0.512500X0*%
%TD*%
%TA.AperFunction,SMDPad,CuDef*%
%ADD28RoundRect,0.243750X0.253831X-0.450720X0.515764X-0.039566X-0.253831X0.450720X-0.515764X0.039566X0*%
%TD*%
%TA.AperFunction,SMDPad,CuDef*%
%ADD29R,0.600000X1.450000*%
%TD*%
%TA.AperFunction,SMDPad,CuDef*%
%ADD30R,0.300000X1.450000*%
%TD*%
%TA.AperFunction,ComponentPad*%
%ADD31O,1.000000X2.100000*%
%TD*%
%TA.AperFunction,ComponentPad*%
%ADD32O,1.000000X1.800000*%
%TD*%
%TA.AperFunction,SMDPad,CuDef*%
%ADD33RoundRect,0.062500X0.062500X-0.337500X0.062500X0.337500X-0.062500X0.337500X-0.062500X-0.337500X0*%
%TD*%
%TA.AperFunction,SMDPad,CuDef*%
%ADD34RoundRect,0.062500X0.337500X-0.062500X0.337500X0.062500X-0.337500X0.062500X-0.337500X-0.062500X0*%
%TD*%
%TA.AperFunction,SMDPad,CuDef*%
%ADD35R,5.300000X5.300000*%
%TD*%
%TA.AperFunction,ComponentPad*%
%ADD36RotRect,1.524000X1.524000X327.500000*%
%TD*%
%TA.AperFunction,ComponentPad*%
%ADD37HorizOval,1.600000X-0.268650X-0.421696X0.268650X0.421696X0*%
%TD*%
%TA.AperFunction,SMDPad,CuDef*%
%ADD38RoundRect,0.243750X-0.243750X-0.456250X0.243750X-0.456250X0.243750X0.456250X-0.243750X0.456250X0*%
%TD*%
%TA.AperFunction,SMDPad,CuDef*%
%ADD39R,1.200000X1.400000*%
%TD*%
%TA.AperFunction,SMDPad,CuDef*%
%ADD40RoundRect,0.250000X-0.266286X0.466065X-0.534936X0.044369X0.266286X-0.466065X0.534936X-0.044369X0*%
%TD*%
%TA.AperFunction,SMDPad,CuDef*%
%ADD41RoundRect,0.150000X-0.148857X-0.512833X0.401875X0.351643X0.148857X0.512833X-0.401875X-0.351643X0*%
%TD*%
%TA.AperFunction,SMDPad,CuDef*%
%ADD42RoundRect,0.243750X0.515764X0.039566X0.253831X0.450720X-0.515764X-0.039566X-0.253831X-0.450720X0*%
%TD*%
%TA.AperFunction,ViaPad*%
%ADD43C,0.800000*%
%TD*%
%TA.AperFunction,ViaPad*%
%ADD44C,0.700000*%
%TD*%
%TA.AperFunction,Conductor*%
%ADD45C,0.300000*%
%TD*%
%TA.AperFunction,Conductor*%
%ADD46C,1.000000*%
%TD*%
%TA.AperFunction,Conductor*%
%ADD47C,0.500000*%
%TD*%
%TA.AperFunction,Conductor*%
%ADD48C,0.750000*%
%TD*%
G04 APERTURE END LIST*
D10*
%TO.P,U1,1,I/O1*%
%TO.N,Net-(J1-PadA7)*%
X112850000Y-40562500D03*
%TO.P,U1,2,GND*%
%TO.N,GND*%
X111900000Y-40562500D03*
%TO.P,U1,3,I/O2*%
%TO.N,Net-(J1-PadA6)*%
X110950000Y-40562500D03*
%TO.P,U1,4,I/O2*%
%TO.N,UP D+*%
X110950000Y-42837500D03*
%TO.P,U1,5,VBUS*%
%TO.N,VCC*%
X111900000Y-42837500D03*
%TO.P,U1,6,I/O1*%
%TO.N,UP D-*%
X112850000Y-42837500D03*
%TD*%
D11*
%TO.P,R10,1*%
%TO.N,Net-(C22-Pad1)*%
X136680405Y-94240286D03*
%TO.P,R10,2*%
%TO.N,GND*%
X138219595Y-93259714D03*
%TD*%
D12*
%TO.P,R9,1*%
%TO.N,Net-(C8-Pad1)*%
X116487500Y-104950000D03*
%TO.P,R9,2*%
%TO.N,GND*%
X118312500Y-104950000D03*
%TD*%
D13*
%TO.P,R5,1*%
%TO.N,Net-(C3-Pad1)*%
X100180405Y-105159714D03*
%TO.P,R5,2*%
%TO.N,GND*%
X101719595Y-106140286D03*
%TD*%
D12*
%TO.P,R4,2*%
%TO.N,GND*%
X120712500Y-37600000D03*
%TO.P,R4,1*%
%TO.N,Net-(C1-Pad1)*%
X118887500Y-37600000D03*
%TD*%
D14*
%TO.P,C22,1*%
%TO.N,Net-(C22-Pad1)*%
X135447556Y-92320870D03*
%TO.P,C22,2*%
%TO.N,GND*%
X137050000Y-91300000D03*
%TD*%
D15*
%TO.P,C8,1*%
%TO.N,Net-(C8-Pad1)*%
X116450000Y-102750000D03*
%TO.P,C8,2*%
%TO.N,GND*%
X118350000Y-102750000D03*
%TD*%
D16*
%TO.P,C3,2*%
%TO.N,GND*%
X100651222Y-107960435D03*
%TO.P,C3,1*%
%TO.N,Net-(C3-Pad1)*%
X99048778Y-106939565D03*
%TD*%
D15*
%TO.P,C1,1*%
%TO.N,Net-(C1-Pad1)*%
X118850000Y-35100000D03*
%TO.P,C1,2*%
%TO.N,GND*%
X120750000Y-35100000D03*
%TD*%
D17*
%TO.P,C21,1*%
%TO.N,+5V*%
X126189565Y-99298778D03*
%TO.P,C21,2*%
%TO.N,GND*%
X127210435Y-100901222D03*
%TD*%
D18*
%TO.P,J4,1,VBUS*%
%TO.N,Net-(F4-Pad1)*%
X129968048Y-102118948D03*
D19*
%TO.P,J4,2,D-*%
%TO.N,Net-(J4-Pad2)*%
X132076527Y-100775699D03*
%TO.P,J4,3,D+*%
%TO.N,Net-(J4-Pad3)*%
X133763310Y-99701100D03*
%TO.P,J4,4,GND*%
%TO.N,GND*%
X135871788Y-98357851D03*
D20*
%TO.P,J4,5,Shield*%
%TO.N,Net-(C22-Pad1)*%
X138962383Y-97811752D03*
X128166972Y-104689187D03*
%TD*%
D21*
%TO.P,C9,1*%
%TO.N,+5V*%
X95638342Y-73306379D03*
%TO.P,C9,2*%
%TO.N,GND*%
X95638342Y-75206379D03*
%TD*%
D22*
%TO.P,U5,1,I/O1*%
%TO.N,Net-(J4-Pad2)*%
X130709956Y-98469792D03*
%TO.P,U5,2,GND*%
%TO.N,GND*%
X131511178Y-97959358D03*
%TO.P,U5,3,I/O2*%
%TO.N,Net-(J4-Pad3)*%
X132312400Y-97448923D03*
%TO.P,U5,4,I/O2*%
%TO.N,P3 D+*%
X131090044Y-95530208D03*
%TO.P,U5,5,VBUS*%
%TO.N,+5V*%
X130288822Y-96040642D03*
%TO.P,U5,6,I/O1*%
%TO.N,P3 D-*%
X129487600Y-96551077D03*
%TD*%
D23*
%TO.P,F3,1*%
%TO.N,Net-(F3-Pad1)*%
X109550000Y-105937500D03*
%TO.P,F3,2*%
%TO.N,+5V*%
X109550000Y-104062500D03*
%TD*%
D24*
%TO.P,FB1,1*%
%TO.N,Net-(F1-Pad2)*%
X117712500Y-42475000D03*
%TO.P,FB1,2*%
%TO.N,+5V*%
X115887500Y-42475000D03*
%TD*%
D12*
%TO.P,R1,1*%
%TO.N,Net-(J1-PadA5)*%
X105687500Y-42400000D03*
%TO.P,R1,2*%
%TO.N,GND*%
X107512500Y-42400000D03*
%TD*%
D25*
%TO.P,R3,1*%
%TO.N,Net-(R3-Pad1)*%
X89388342Y-73343879D03*
%TO.P,R3,2*%
%TO.N,GND*%
X89388342Y-75168879D03*
%TD*%
D26*
%TO.P,C17,1*%
%TO.N,VDD33*%
X111738342Y-57506379D03*
%TO.P,C17,2*%
%TO.N,GND*%
X111738342Y-55606379D03*
%TD*%
D27*
%TO.P,U4,1,I/O1*%
%TO.N,Net-(J3-PadA7)*%
X111450000Y-105737500D03*
%TO.P,U4,2,GND*%
%TO.N,GND*%
X112400000Y-105737500D03*
%TO.P,U4,3,I/O2*%
%TO.N,Net-(J3-PadA6)*%
X113350000Y-105737500D03*
%TO.P,U4,4,I/O2*%
%TO.N,P2 D+*%
X113350000Y-103462500D03*
%TO.P,U4,5,VBUS*%
%TO.N,+5V*%
X112400000Y-103462500D03*
%TO.P,U4,6,I/O1*%
%TO.N,P2 D-*%
X111450000Y-103462500D03*
%TD*%
D28*
%TO.P,F2,1*%
%TO.N,Net-(F2-Pad1)*%
X90696282Y-96590679D03*
%TO.P,F2,2*%
%TO.N,+5V*%
X91703718Y-95009321D03*
%TD*%
D21*
%TO.P,C15,1*%
%TO.N,VDD33*%
X91438342Y-73306379D03*
%TO.P,C15,2*%
%TO.N,GND*%
X91438342Y-75206379D03*
%TD*%
D29*
%TO.P,J3,A1,GND*%
%TO.N,GND*%
X109138342Y-108361379D03*
%TO.P,J3,A4,VBUS*%
%TO.N,Net-(F3-Pad1)*%
X109938342Y-108361379D03*
D30*
%TO.P,J3,A5,CC1*%
%TO.N,unconnected-(J3-PadA5)*%
X111138342Y-108361379D03*
%TO.P,J3,A6,D+*%
%TO.N,Net-(J3-PadA6)*%
X112138342Y-108361379D03*
%TO.P,J3,A7,D-*%
%TO.N,Net-(J3-PadA7)*%
X112638342Y-108361379D03*
%TO.P,J3,A8,SBU1*%
%TO.N,unconnected-(J3-PadA8)*%
X113638342Y-108361379D03*
D29*
%TO.P,J3,A9,VBUS*%
%TO.N,Net-(F3-Pad1)*%
X114838342Y-108361379D03*
%TO.P,J3,A12,GND*%
%TO.N,GND*%
X115638342Y-108361379D03*
%TO.P,J3,B1,GND*%
X115638342Y-108361379D03*
%TO.P,J3,B4,VBUS*%
%TO.N,Net-(F3-Pad1)*%
X114838342Y-108361379D03*
D30*
%TO.P,J3,B5,CC2*%
%TO.N,unconnected-(J3-PadB5)*%
X114138342Y-108361379D03*
%TO.P,J3,B6,D+*%
%TO.N,Net-(J3-PadA6)*%
X113138342Y-108361379D03*
%TO.P,J3,B7,D-*%
%TO.N,Net-(J3-PadA7)*%
X111638342Y-108361379D03*
%TO.P,J3,B8,SBU2*%
%TO.N,unconnected-(J3-PadB8)*%
X110638342Y-108361379D03*
D29*
%TO.P,J3,B9,VBUS*%
%TO.N,Net-(F3-Pad1)*%
X109938342Y-108361379D03*
%TO.P,J3,B12,GND*%
%TO.N,GND*%
X109138342Y-108361379D03*
D31*
%TO.P,J3,S1,SHIELD*%
%TO.N,Net-(C8-Pad1)*%
X116708342Y-109276379D03*
X108068342Y-109276379D03*
D32*
X108068342Y-113456379D03*
X116708342Y-113456379D03*
%TD*%
D15*
%TO.P,C16,1*%
%TO.N,VDD33*%
X104288342Y-70981379D03*
%TO.P,C16,2*%
%TO.N,GND*%
X106188342Y-70981379D03*
%TD*%
D33*
%TO.P,U2,1,VBAT*%
%TO.N,+5V*%
X98638342Y-69206379D03*
%TO.P,U2,2,NC*%
%TO.N,unconnected-(U2-Pad2)*%
X99138342Y-69206379D03*
%TO.P,U2,3,SWAP_USBDN1_DM/PRT_DIS_M1*%
%TO.N,P1 D-*%
X99638342Y-69206379D03*
%TO.P,U2,4,SWAP_USBDN1_DP/PRT_DIS_P1*%
%TO.N,P1 D+*%
X100138342Y-69206379D03*
%TO.P,U2,5,USBDN2_DM/PRT_DIS_M2*%
%TO.N,P2 D-*%
X100638342Y-69206379D03*
%TO.P,U2,6,USBDN2_DP/PRT_DIS_P2*%
%TO.N,P2 D+*%
X101138342Y-69206379D03*
%TO.P,U2,7,NC*%
%TO.N,unconnected-(U2-Pad7)*%
X101638342Y-69206379D03*
%TO.P,U2,8,USBDN3_DM/PRT_DIS_M3*%
%TO.N,P3 D-*%
X102138342Y-69206379D03*
%TO.P,U2,9,USBDN3_DP/PRT_DIS_P3*%
%TO.N,P3 D+*%
X102638342Y-69206379D03*
%TO.P,U2,10,USBDN4_DM/PRT_DIS_M4*%
%TO.N,P4 D-*%
X103138342Y-69206379D03*
%TO.P,U2,11,USBDN4_DP/PRT_DIS_P4*%
%TO.N,P4 D+*%
X103638342Y-69206379D03*
%TO.P,U2,12,VDDA33*%
%TO.N,VDD33*%
X104138342Y-69206379D03*
D34*
%TO.P,U2,13,SOF*%
%TO.N,unconnected-(U2-Pad13)*%
X104838342Y-68506379D03*
%TO.P,U2,14,SUSPEND*%
%TO.N,unconnected-(U2-Pad14)*%
X104838342Y-68006379D03*
%TO.P,U2,15,PRTPWR1/PRTCTL1*%
%TO.N,unconnected-(U2-Pad15)*%
X104838342Y-67506379D03*
%TO.P,U2,16,OCS1_N*%
%TO.N,unconnected-(U2-Pad16)*%
X104838342Y-67006379D03*
%TO.P,U2,17,VDDCR12*%
%TO.N,VDD12*%
X104838342Y-66506379D03*
%TO.P,U2,18,VDD33*%
%TO.N,VDD33*%
X104838342Y-66006379D03*
%TO.P,U2,19,PRTPWR2/PRTCTL2*%
%TO.N,unconnected-(U2-Pad19)*%
X104838342Y-65506379D03*
%TO.P,U2,20,OCS2_N*%
%TO.N,unconnected-(U2-Pad20)*%
X104838342Y-65006379D03*
%TO.P,U2,21,PRTPWR3/PRTCTL3*%
%TO.N,unconnected-(U2-Pad21)*%
X104838342Y-64506379D03*
%TO.P,U2,22,NC*%
%TO.N,unconnected-(U2-Pad22)*%
X104838342Y-64006379D03*
%TO.P,U2,23,NC*%
%TO.N,unconnected-(U2-Pad23)*%
X104838342Y-63506379D03*
%TO.P,U2,24,SPI_DI*%
%TO.N,unconnected-(U2-Pad24)*%
X104838342Y-63006379D03*
D33*
%TO.P,U2,25,SPI_CE_N*%
%TO.N,unconnected-(U2-Pad25)*%
X104138342Y-62306379D03*
%TO.P,U2,26,SPI_DO/SPI_SPD_SEL*%
%TO.N,unconnected-(U2-Pad26)*%
X103638342Y-62306379D03*
%TO.P,U2,27,SPI_CLK*%
%TO.N,unconnected-(U2-Pad27)*%
X103138342Y-62306379D03*
%TO.P,U2,28,UART_RX/OCS3_N*%
%TO.N,unconnected-(U2-Pad28)*%
X102638342Y-62306379D03*
%TO.P,U2,29,PRTPWR4/PRTCTL4*%
%TO.N,unconnected-(U2-Pad29)*%
X102138342Y-62306379D03*
%TO.P,U2,30,UART_TX/OCS4_N*%
%TO.N,unconnected-(U2-Pad30)*%
X101638342Y-62306379D03*
%TO.P,U2,31,SDA/SMBDATA*%
%TO.N,unconnected-(U2-Pad31)*%
X101138342Y-62306379D03*
%TO.P,U2,32,VDD33*%
%TO.N,VDD33*%
X100638342Y-62306379D03*
%TO.P,U2,33,SCL/SMBCLK*%
%TO.N,unconnected-(U2-Pad33)*%
X100138342Y-62306379D03*
%TO.P,U2,34,NC*%
%TO.N,unconnected-(U2-Pad34)*%
X99638342Y-62306379D03*
%TO.P,U2,35,RESET_N*%
%TO.N,RESET*%
X99138342Y-62306379D03*
%TO.P,U2,36,VBUS_DET*%
%TO.N,+3V3*%
X98638342Y-62306379D03*
D34*
%TO.P,U2,37,VDDA33*%
%TO.N,VDD33*%
X97938342Y-63006379D03*
%TO.P,U2,38,VDD12*%
%TO.N,VDD12*%
X97938342Y-63506379D03*
%TO.P,U2,39,FLEX_HSIC_UP_STROBE*%
%TO.N,unconnected-(U2-Pad39)*%
X97938342Y-64006379D03*
%TO.P,U2,40,FLEX_USBUP_DM/PRT_DIS_M0*%
%TO.N,UP D-*%
X97938342Y-64506379D03*
%TO.P,U2,41,FLEX_USBUP_DP/PRT_DIS_P0*%
%TO.N,UP D+*%
X97938342Y-65006379D03*
%TO.P,U2,42,FLEX_HSIC_UP_DATA*%
%TO.N,unconnected-(U2-Pad42)*%
X97938342Y-65506379D03*
%TO.P,U2,43,XTAL2*%
%TO.N,XTAL2*%
X97938342Y-66006379D03*
%TO.P,U2,44,XTAL1/REFCLK*%
%TO.N,XTAL1*%
X97938342Y-66506379D03*
%TO.P,U2,45,NC*%
%TO.N,unconnected-(U2-Pad45)*%
X97938342Y-67006379D03*
%TO.P,U2,46,RBIAS*%
%TO.N,Net-(R3-Pad1)*%
X97938342Y-67506379D03*
%TO.P,U2,47,VDDCOREREG*%
%TO.N,VDD33*%
X97938342Y-68006379D03*
%TO.P,U2,48,VDDA33*%
X97938342Y-68506379D03*
D35*
%TO.P,U2,49,EPAD*%
%TO.N,GND*%
X101388342Y-65756379D03*
%TD*%
D26*
%TO.P,C19,1*%
%TO.N,VDD12*%
X100588342Y-56906379D03*
%TO.P,C19,2*%
%TO.N,GND*%
X100588342Y-55006379D03*
%TD*%
%TO.P,C12,1*%
%TO.N,VDD33*%
X109588342Y-57506379D03*
%TO.P,C12,2*%
%TO.N,GND*%
X109588342Y-55606379D03*
%TD*%
%TO.P,C5,1*%
%TO.N,GND*%
X94988342Y-67156379D03*
%TO.P,C5,2*%
%TO.N,XTAL2*%
X94988342Y-65256379D03*
%TD*%
D15*
%TO.P,C18,1*%
%TO.N,VDD12*%
X106538342Y-66906379D03*
%TO.P,C18,2*%
%TO.N,GND*%
X108438342Y-66906379D03*
%TD*%
D36*
%TO.P,J2,1,VBUS*%
%TO.N,Net-(F2-Pad1)*%
X88904897Y-98473916D03*
D19*
%TO.P,J2,2,D-*%
%TO.N,Net-(J2-Pad2)*%
X91013376Y-99817165D03*
%TO.P,J2,3,D+*%
%TO.N,Net-(J2-Pad3)*%
X92700159Y-100891764D03*
%TO.P,J2,4,GND*%
%TO.N,GND*%
X94808637Y-102235013D03*
D37*
%TO.P,J2,5,Shield*%
%TO.N,Net-(C3-Pad1)*%
X85814302Y-97927817D03*
X96609713Y-104805252D03*
%TD*%
D21*
%TO.P,C6,1*%
%TO.N,GND*%
X105888342Y-57756379D03*
%TO.P,C6,2*%
%TO.N,RESET*%
X105888342Y-59656379D03*
%TD*%
D38*
%TO.P,F1,1*%
%TO.N,VCC*%
X115862500Y-40400000D03*
%TO.P,F1,2*%
%TO.N,Net-(F1-Pad2)*%
X117737500Y-40400000D03*
%TD*%
D29*
%TO.P,J1,A1,GND*%
%TO.N,GND*%
X115638342Y-37701379D03*
%TO.P,J1,A4,VBUS*%
%TO.N,VCC*%
X114838342Y-37701379D03*
D30*
%TO.P,J1,A5,CC1*%
%TO.N,Net-(J1-PadA5)*%
X113638342Y-37701379D03*
%TO.P,J1,A6,D+*%
%TO.N,Net-(J1-PadA6)*%
X112638342Y-37701379D03*
%TO.P,J1,A7,D-*%
%TO.N,Net-(J1-PadA7)*%
X112138342Y-37701379D03*
%TO.P,J1,A8,SBU1*%
%TO.N,unconnected-(J1-PadA8)*%
X111138342Y-37701379D03*
D29*
%TO.P,J1,A9,VBUS*%
%TO.N,VCC*%
X109938342Y-37701379D03*
%TO.P,J1,A12,GND*%
%TO.N,GND*%
X109138342Y-37701379D03*
%TO.P,J1,B1,GND*%
X109138342Y-37701379D03*
%TO.P,J1,B4,VBUS*%
%TO.N,VCC*%
X109938342Y-37701379D03*
D30*
%TO.P,J1,B5,CC2*%
%TO.N,Net-(J1-PadB5)*%
X110638342Y-37701379D03*
%TO.P,J1,B6,D+*%
%TO.N,Net-(J1-PadA6)*%
X111638342Y-37701379D03*
%TO.P,J1,B7,D-*%
%TO.N,Net-(J1-PadA7)*%
X113138342Y-37701379D03*
%TO.P,J1,B8,SBU2*%
%TO.N,unconnected-(J1-PadB8)*%
X114138342Y-37701379D03*
D29*
%TO.P,J1,B9,VBUS*%
%TO.N,VCC*%
X114838342Y-37701379D03*
%TO.P,J1,B12,GND*%
%TO.N,GND*%
X115638342Y-37701379D03*
D32*
%TO.P,J1,S1,SHIELD*%
%TO.N,Net-(C1-Pad1)*%
X116708342Y-32606379D03*
D31*
X116708342Y-36786379D03*
X108068342Y-36786379D03*
D32*
X108068342Y-32606379D03*
%TD*%
D39*
%TO.P,Y1,1,1*%
%TO.N,XTAL1*%
X93013342Y-69456379D03*
%TO.P,Y1,2,2*%
%TO.N,GND*%
X93013342Y-67256379D03*
%TO.P,Y1,3,3*%
%TO.N,XTAL2*%
X91313342Y-67256379D03*
%TO.P,Y1,4,4*%
%TO.N,GND*%
X91313342Y-69456379D03*
%TD*%
D26*
%TO.P,C11,1*%
%TO.N,VDD33*%
X102688342Y-56306379D03*
%TO.P,C11,2*%
%TO.N,GND*%
X102688342Y-54406379D03*
%TD*%
%TO.P,C20,1*%
%TO.N,VDD12*%
X113888342Y-57506379D03*
%TO.P,C20,2*%
%TO.N,GND*%
X113888342Y-55606379D03*
%TD*%
D40*
%TO.P,C2,1*%
%TO.N,+5V*%
X89810435Y-93798778D03*
%TO.P,C2,2*%
%TO.N,GND*%
X88789565Y-95401222D03*
%TD*%
D12*
%TO.P,R6,1*%
%TO.N,+5V*%
X107975842Y-51406379D03*
%TO.P,R6,2*%
%TO.N,+3V3*%
X109800842Y-51406379D03*
%TD*%
D21*
%TO.P,C7,1*%
%TO.N,+5V*%
X107400000Y-104050000D03*
%TO.P,C7,2*%
%TO.N,GND*%
X107400000Y-105950000D03*
%TD*%
D41*
%TO.P,U3,1,I/O1*%
%TO.N,Net-(J2-Pad2)*%
X92487600Y-97548923D03*
%TO.P,U3,2,GND*%
%TO.N,GND*%
X93288822Y-98059358D03*
%TO.P,U3,3,I/O2*%
%TO.N,Net-(J2-Pad3)*%
X94090044Y-98569792D03*
%TO.P,U3,4,I/O2*%
%TO.N,P1 D+*%
X95312400Y-96651077D03*
%TO.P,U3,5,VBUS*%
%TO.N,+5V*%
X94511178Y-96140642D03*
%TO.P,U3,6,I/O1*%
%TO.N,P1 D-*%
X93709956Y-95630208D03*
%TD*%
D15*
%TO.P,C10,1*%
%TO.N,+5V*%
X115850000Y-44575000D03*
%TO.P,C10,2*%
%TO.N,GND*%
X117750000Y-44575000D03*
%TD*%
D21*
%TO.P,C13,1*%
%TO.N,VDD33*%
X93538342Y-73306379D03*
%TO.P,C13,2*%
%TO.N,GND*%
X93538342Y-75206379D03*
%TD*%
D26*
%TO.P,C4,1*%
%TO.N,GND*%
X94988342Y-70631379D03*
%TO.P,C4,2*%
%TO.N,XTAL1*%
X94988342Y-68731379D03*
%TD*%
D25*
%TO.P,R8,1*%
%TO.N,+3V3*%
X105888342Y-54193879D03*
%TO.P,R8,2*%
%TO.N,RESET*%
X105888342Y-56018879D03*
%TD*%
D15*
%TO.P,C14,1*%
%TO.N,VDD33*%
X106538342Y-64756379D03*
%TO.P,C14,2*%
%TO.N,GND*%
X108438342Y-64756379D03*
%TD*%
D24*
%TO.P,R2,1*%
%TO.N,Net-(J1-PadB5)*%
X107512500Y-40400000D03*
%TO.P,R2,2*%
%TO.N,GND*%
X105687500Y-40400000D03*
%TD*%
D12*
%TO.P,R7,1*%
%TO.N,+3V3*%
X107975842Y-53456379D03*
%TO.P,R7,2*%
%TO.N,GND*%
X109800842Y-53456379D03*
%TD*%
D42*
%TO.P,F4,1*%
%TO.N,Net-(F4-Pad1)*%
X129103718Y-99690679D03*
%TO.P,F4,2*%
%TO.N,+5V*%
X128096282Y-98109321D03*
%TD*%
D43*
%TO.N,GND*%
X102450000Y-105000000D03*
X99950000Y-109050000D03*
X95900000Y-100650000D03*
X139200000Y-92650000D03*
X138050000Y-90650000D03*
X119450000Y-104950000D03*
X119500000Y-102750000D03*
X109850000Y-41250000D03*
X120750000Y-33700000D03*
X120700000Y-38900000D03*
%TO.N,+5V*%
X114700000Y-42500000D03*
X114700000Y-44600000D03*
X115800000Y-45900000D03*
X106838342Y-51406379D03*
X109550000Y-102950000D03*
X107988342Y-50106379D03*
X92375000Y-94125000D03*
X106100000Y-104050000D03*
X97088342Y-73306379D03*
X125000000Y-100100000D03*
X127500000Y-97150000D03*
X88600000Y-93000000D03*
%TO.N,P2 D-*%
X89775000Y-85725000D03*
X101325000Y-101750000D03*
%TO.N,P2 D+*%
X90775000Y-86350000D03*
X102175000Y-100900000D03*
%TO.N,P3 D-*%
X91625000Y-85175000D03*
X103025000Y-100125000D03*
%TO.N,P3 D+*%
X92450000Y-86000000D03*
X103800000Y-99300000D03*
%TO.N,VDD12*%
X107438342Y-61506379D03*
X99584578Y-58902614D03*
%TO.N,VDD33*%
X106588342Y-69506379D03*
X102788342Y-60731879D03*
X102776195Y-58419732D03*
X97738342Y-69506379D03*
X106588342Y-62906379D03*
D44*
%TO.N,GND*%
X100750000Y-66425000D03*
D43*
X108288342Y-55606379D03*
D44*
X102075000Y-67750000D03*
D43*
X106825000Y-107350000D03*
X93038342Y-66006379D03*
X103838342Y-53606379D03*
X115625000Y-106975000D03*
X87675000Y-94675000D03*
X104600000Y-40400000D03*
X113888342Y-54556379D03*
X93513342Y-76206379D03*
X107288342Y-57756379D03*
D44*
X102075000Y-65100000D03*
D43*
X106050000Y-105950000D03*
D44*
X103400000Y-66450000D03*
D43*
X110938342Y-53456379D03*
X105688342Y-72206379D03*
D44*
X102075000Y-63775000D03*
D43*
X91438342Y-76206379D03*
X134900000Y-96900000D03*
X101238342Y-53806379D03*
D44*
X100750000Y-65100000D03*
X102075000Y-66425000D03*
D43*
X116100000Y-38900000D03*
D44*
X100725000Y-67750000D03*
X99425000Y-63775000D03*
D43*
X93488342Y-70956879D03*
X92550000Y-99250000D03*
D44*
X99425000Y-66450000D03*
D43*
X117800000Y-45900000D03*
X108438342Y-63406379D03*
X89388342Y-76156379D03*
X108700000Y-42400000D03*
D44*
X103400000Y-63775000D03*
D43*
X108138342Y-68256379D03*
X132300000Y-99200000D03*
X95638342Y-76206379D03*
X118900000Y-44575000D03*
X96204428Y-66432419D03*
D44*
X103400000Y-65100000D03*
X99425000Y-67750000D03*
X103400000Y-67750000D03*
D43*
X90138342Y-69456379D03*
X109060342Y-38956379D03*
X111738342Y-54556379D03*
X114700000Y-104550000D03*
D44*
X100750000Y-63775000D03*
D43*
X126100000Y-101700000D03*
D44*
X99425000Y-65125000D03*
D43*
%TO.N,Net-(J1-PadA5)*%
X113632342Y-34640879D03*
X113269958Y-36278879D03*
%TD*%
D45*
%TO.N,P3 D-*%
X92267894Y-85175000D02*
X102138342Y-75304552D01*
X91625000Y-85175000D02*
X92267894Y-85175000D01*
X102138342Y-75304552D02*
X102138342Y-69206379D01*
%TO.N,GND*%
X109850000Y-41250000D02*
X110300000Y-41700000D01*
X110300000Y-41700000D02*
X111500000Y-41700000D01*
D46*
X101719595Y-106140286D02*
X102450000Y-105000000D01*
X100651222Y-107960435D02*
X99950000Y-109050000D01*
%TO.N,Net-(C3-Pad1)*%
X99048778Y-106939565D02*
X100180405Y-105159714D01*
X96609713Y-104805252D02*
X99048778Y-106939565D01*
%TO.N,GND*%
X94808637Y-102235013D02*
X95900000Y-100650000D01*
X138219595Y-93259714D02*
X139200000Y-92650000D01*
X137050000Y-91300000D02*
X138050000Y-90650000D01*
%TO.N,Net-(C22-Pad1)*%
X136680405Y-94240286D02*
X135447556Y-92320870D01*
X138962383Y-97811752D02*
X136680405Y-94240286D01*
%TO.N,Net-(C8-Pad1)*%
X116487500Y-105987500D02*
X116487500Y-104950000D01*
X116725000Y-106225000D02*
X116487500Y-105987500D01*
X116725000Y-109259721D02*
X116725000Y-106225000D01*
X116708342Y-109276379D02*
X116725000Y-109259721D01*
%TO.N,GND*%
X118312500Y-104950000D02*
X119450000Y-104950000D01*
X118350000Y-102750000D02*
X119500000Y-102750000D01*
%TO.N,Net-(C8-Pad1)*%
X116450000Y-104912500D02*
X116487500Y-104950000D01*
X116450000Y-102750000D02*
X116450000Y-104912500D01*
D45*
%TO.N,VCC*%
X111900000Y-42250000D02*
X112450000Y-41700000D01*
X112450000Y-41700000D02*
X113750000Y-41700000D01*
X111900000Y-42837500D02*
X111900000Y-42250000D01*
X113750000Y-41700000D02*
X115050000Y-40400000D01*
X115050000Y-40400000D02*
X115862500Y-40400000D01*
%TO.N,GND*%
X111900000Y-41300000D02*
X111900000Y-40562500D01*
X111500000Y-41700000D02*
X111900000Y-41300000D01*
%TO.N,Net-(J1-PadA5)*%
X103500000Y-41000000D02*
X103500000Y-38150000D01*
X113619842Y-34628379D02*
X113632342Y-34640879D01*
X104900000Y-42400000D02*
X103500000Y-41000000D01*
X103500000Y-38150000D02*
X107021621Y-34628379D01*
X105687500Y-42400000D02*
X104900000Y-42400000D01*
X107021621Y-34628379D02*
X113619842Y-34628379D01*
%TO.N,UP D-*%
X112850000Y-43900000D02*
X112850000Y-42837500D01*
X111607106Y-44500000D02*
X112250000Y-44500000D01*
X104407106Y-51700000D02*
X111607106Y-44500000D01*
X98700000Y-54107106D02*
X101107106Y-51700000D01*
X101107106Y-51700000D02*
X104407106Y-51700000D01*
X96300000Y-63592894D02*
X96300000Y-59207106D01*
X112250000Y-44500000D02*
X112850000Y-43900000D01*
X96300000Y-59207106D02*
X98700000Y-56807106D01*
X97213485Y-64506379D02*
X96300000Y-63592894D01*
X98700000Y-56807106D02*
X98700000Y-54107106D01*
X97938342Y-64506379D02*
X97213485Y-64506379D01*
%TO.N,UP D+*%
X110950000Y-44450000D02*
X110950000Y-42837500D01*
X104200000Y-51200000D02*
X110950000Y-44450000D01*
%TO.N,Net-(J1-PadA7)*%
X112850000Y-39450000D02*
X112850000Y-40562500D01*
X112463342Y-39063342D02*
X112850000Y-39450000D01*
X112463342Y-39056379D02*
X112463342Y-39063342D01*
%TO.N,Net-(J1-PadA6)*%
X110950000Y-39600000D02*
X110950000Y-40562500D01*
X111638342Y-38911658D02*
X110950000Y-39600000D01*
X111638342Y-37701379D02*
X111638342Y-38911658D01*
D46*
%TO.N,GND*%
X120750000Y-33700000D02*
X120750000Y-35100000D01*
X120712500Y-38887500D02*
X120700000Y-38900000D01*
X120712500Y-37600000D02*
X120712500Y-38887500D01*
%TO.N,Net-(C1-Pad1)*%
X118850000Y-34748037D02*
X116708342Y-32606379D01*
X118850000Y-35100000D02*
X118850000Y-34748037D01*
X117521963Y-37600000D02*
X116708342Y-36786379D01*
X118887500Y-37600000D02*
X117521963Y-37600000D01*
X118887500Y-35137500D02*
X118850000Y-35100000D01*
X118887500Y-37600000D02*
X118887500Y-35137500D01*
%TO.N,+5V*%
X115850000Y-43650000D02*
X114700000Y-42500000D01*
X115850000Y-44575000D02*
X115850000Y-43650000D01*
X115887500Y-43412500D02*
X114700000Y-44600000D01*
X115887500Y-42475000D02*
X115887500Y-43412500D01*
X115850000Y-44575000D02*
X115850000Y-42512500D01*
X115850000Y-42512500D02*
X115887500Y-42475000D01*
X114700000Y-44600000D02*
X114700000Y-42500000D01*
X115800000Y-45700000D02*
X114700000Y-44600000D01*
X115800000Y-45900000D02*
X115800000Y-45700000D01*
X115800000Y-45900000D02*
X115800000Y-44625000D01*
X115800000Y-44625000D02*
X115850000Y-44575000D01*
X115825000Y-44600000D02*
X115850000Y-44575000D01*
X114700000Y-44600000D02*
X115825000Y-44600000D01*
X115862500Y-42500000D02*
X115887500Y-42475000D01*
X114700000Y-42500000D02*
X115862500Y-42500000D01*
%TO.N,GND*%
X117750000Y-45850000D02*
X117750000Y-44575000D01*
X117800000Y-45900000D02*
X117750000Y-45850000D01*
X117800000Y-45675000D02*
X118900000Y-44575000D01*
X117800000Y-45900000D02*
X117800000Y-45675000D01*
X117750000Y-44575000D02*
X118900000Y-44575000D01*
%TO.N,Net-(F1-Pad2)*%
X117737500Y-40400000D02*
X117737500Y-42450000D01*
X117737500Y-42450000D02*
X117712500Y-42475000D01*
%TO.N,VCC*%
X115862500Y-40400000D02*
X114838342Y-39375842D01*
X114838342Y-39375842D02*
X114838342Y-39031379D01*
D45*
%TO.N,Net-(J1-PadB5)*%
X109300000Y-40200000D02*
X107712500Y-40200000D01*
X110638342Y-37701379D02*
X110638342Y-38861658D01*
X110638342Y-38861658D02*
X109300000Y-40200000D01*
X107712500Y-40200000D02*
X107512500Y-40400000D01*
D46*
%TO.N,GND*%
X108700000Y-42400000D02*
X107512500Y-42400000D01*
X104600000Y-40400000D02*
X105687500Y-40400000D01*
%TO.N,+5V*%
X127500000Y-97150000D02*
X125000000Y-100100000D01*
X106838342Y-51256379D02*
X107988342Y-50106379D01*
X126189565Y-99298778D02*
X125000000Y-100100000D01*
D47*
X98638342Y-71756379D02*
X98638342Y-70856379D01*
D46*
X128096282Y-98109321D02*
X127500000Y-97150000D01*
D45*
X91703718Y-95009321D02*
X92475000Y-96200000D01*
D46*
X107975842Y-50118879D02*
X107988342Y-50106379D01*
X91703718Y-95009321D02*
X89810435Y-93798778D01*
X106100000Y-104050000D02*
X109550000Y-102950000D01*
X107400000Y-104050000D02*
X106100000Y-104050000D01*
X91703718Y-95009321D02*
X92375000Y-94125000D01*
D47*
X96479764Y-73306379D02*
X95638342Y-73306379D01*
D46*
X107975842Y-51406379D02*
X107975842Y-50118879D01*
D45*
X130600000Y-96700000D02*
X130288822Y-96040642D01*
D46*
X92375000Y-94125000D02*
X88600000Y-93000000D01*
D47*
X98638342Y-71147801D02*
X96479764Y-73306379D01*
D45*
X92475000Y-96200000D02*
X93525000Y-96900000D01*
D46*
X109550000Y-104062500D02*
X109550000Y-102950000D01*
X95638342Y-73306379D02*
X97088342Y-73306379D01*
D45*
X129600000Y-97800000D02*
X130500000Y-97200000D01*
X128096282Y-98109321D02*
X129600000Y-97800000D01*
X93525000Y-96900000D02*
X94050000Y-96850000D01*
X130500000Y-97200000D02*
X130600000Y-96700000D01*
D47*
X98638342Y-70106379D02*
X98638342Y-70856379D01*
D46*
X106838342Y-51406379D02*
X106838342Y-51256379D01*
D45*
X109550000Y-104062500D02*
X110700000Y-104600000D01*
D46*
X89810435Y-93798778D02*
X88600000Y-93000000D01*
D45*
X111800000Y-104600000D02*
X112400000Y-104150000D01*
D46*
X107975842Y-51406379D02*
X106838342Y-51406379D01*
D47*
X97088342Y-73306379D02*
X98638342Y-71756379D01*
X98638342Y-70856379D02*
X98638342Y-71147801D01*
D46*
X126189565Y-99298778D02*
X128096282Y-98109321D01*
D45*
X112400000Y-104150000D02*
X112400000Y-103462500D01*
X98638342Y-69206379D02*
X98638342Y-70106379D01*
X94050000Y-96850000D02*
X94511178Y-96140642D01*
X110700000Y-104600000D02*
X111800000Y-104600000D01*
D46*
X109550000Y-104062500D02*
X107400000Y-104050000D01*
D45*
%TO.N,XTAL1*%
X96388342Y-68206379D02*
X96388342Y-67556379D01*
X97438342Y-66506379D02*
X97938342Y-66506379D01*
X94988342Y-68731379D02*
X93738342Y-68731379D01*
X93738342Y-68731379D02*
X93013342Y-69456379D01*
X95863342Y-68731379D02*
X96388342Y-68206379D01*
X96388342Y-67556379D02*
X97438342Y-66506379D01*
X94988342Y-68731379D02*
X95863342Y-68731379D01*
%TO.N,XTAL2*%
X91313342Y-66181379D02*
X92238342Y-65256379D01*
X92238342Y-65256379D02*
X94988342Y-65256379D01*
X96088342Y-65256379D02*
X94988342Y-65256379D01*
X96838342Y-66006379D02*
X96088342Y-65256379D01*
X97938342Y-66006379D02*
X96838342Y-66006379D01*
X91313342Y-67256379D02*
X91313342Y-66181379D01*
%TO.N,VCC*%
X109938342Y-36826379D02*
X111235342Y-35529379D01*
X111235342Y-35529379D02*
X113596746Y-35529379D01*
X113596746Y-35529379D02*
X114838342Y-36770975D01*
X109938342Y-37701379D02*
X109938342Y-36826379D01*
X114838342Y-36770975D02*
X114838342Y-37701379D01*
D47*
X114838342Y-37701379D02*
X114838342Y-39031379D01*
D46*
%TO.N,Net-(F2-Pad1)*%
X88904897Y-98473916D02*
X90696282Y-96590679D01*
D45*
%TO.N,Net-(F3-Pad1)*%
X111026963Y-110325000D02*
X113744721Y-110325000D01*
X113744721Y-110325000D02*
X114838342Y-109231379D01*
D47*
X109938342Y-108361379D02*
X109938342Y-106325842D01*
D45*
X114838342Y-109231379D02*
X114838342Y-108361379D01*
X109938342Y-109236379D02*
X111026963Y-110325000D01*
D47*
X109938342Y-106325842D02*
X109550000Y-105937500D01*
D45*
X109938342Y-108361379D02*
X109938342Y-109236379D01*
D46*
%TO.N,Net-(F4-Pad1)*%
X129968048Y-102118948D02*
X129103718Y-99690679D01*
D47*
%TO.N,Net-(J2-Pad2)*%
X91013376Y-99817165D02*
X92487600Y-97548923D01*
%TO.N,Net-(J2-Pad3)*%
X92700159Y-100891764D02*
X94090044Y-98569792D01*
%TO.N,+3V3*%
X107975842Y-53368879D02*
X109800842Y-51543879D01*
D45*
X103988342Y-55056379D02*
X103988342Y-58267540D01*
D46*
X106625842Y-53456379D02*
X105888342Y-54193879D01*
D45*
X103988342Y-58267540D02*
X103074503Y-59181379D01*
X101072873Y-59181379D02*
X98638342Y-61615910D01*
X104850842Y-54193879D02*
X103988342Y-55056379D01*
X98638342Y-61615910D02*
X98638342Y-62306379D01*
D47*
X107975842Y-53456379D02*
X107975842Y-53368879D01*
D46*
X107975842Y-53456379D02*
X106625842Y-53456379D01*
D45*
X105888342Y-54193879D02*
X104850842Y-54193879D01*
X103074503Y-59181379D02*
X101072873Y-59181379D01*
D47*
X109800842Y-51543879D02*
X109800842Y-51406379D01*
D45*
%TO.N,RESET*%
X99138342Y-62306379D02*
X99138342Y-61823016D01*
X105838342Y-59656379D02*
X105888342Y-59656379D01*
X105325842Y-56018879D02*
X104488342Y-56856379D01*
X104488342Y-58306379D02*
X105838342Y-59656379D01*
X104488342Y-56856379D02*
X104488342Y-58306379D01*
X105888342Y-59656379D02*
X105863342Y-59681379D01*
X99138342Y-61823016D02*
X101229979Y-59731379D01*
X105863342Y-59681379D02*
X105863342Y-59731379D01*
X105813342Y-59731379D02*
X105888342Y-59656379D01*
X101229979Y-59731379D02*
X105813342Y-59731379D01*
X105888342Y-56018879D02*
X105325842Y-56018879D01*
%TO.N,P1 D-*%
X88300000Y-84800000D02*
X89100000Y-84000000D01*
X89241424Y-82868629D02*
X89524267Y-83151472D01*
X99638342Y-73461658D02*
X99638342Y-69206379D01*
X89948531Y-83151472D02*
X89948530Y-83151471D01*
X88300000Y-88550000D02*
X88300000Y-84800000D01*
X93709956Y-95630208D02*
X94050000Y-95290164D01*
X94050000Y-95290164D02*
X94050000Y-94300000D01*
X89100000Y-83575736D02*
X88817158Y-83292894D01*
X89948530Y-83151471D02*
X99638342Y-73461658D01*
X89241424Y-82868630D02*
X89241424Y-82868629D01*
X94050000Y-94300000D02*
X88300000Y-88550000D01*
X88817196Y-82868668D02*
G75*
G03*
X88817158Y-83292894I212104J-212132D01*
G01*
X89099968Y-83575768D02*
G75*
G02*
X89100000Y-84000000I-212068J-212132D01*
G01*
X89241423Y-82868631D02*
G75*
G03*
X88817159Y-82868631I-212132J-212130D01*
G01*
X89948530Y-83151471D02*
G75*
G02*
X89524268Y-83151471I-212131J212131D01*
G01*
%TO.N,P1 D+*%
X100138342Y-73668764D02*
X100138342Y-69206379D01*
X95312400Y-96651077D02*
X95825000Y-95825000D01*
X95825000Y-95009888D02*
X88800000Y-87984888D01*
X88800000Y-85007106D02*
X100138342Y-73668764D01*
X95825000Y-95825000D02*
X95825000Y-95009888D01*
X88800000Y-87984888D02*
X88800000Y-85007106D01*
%TO.N,P2 D-*%
X89775000Y-85725000D02*
X89775000Y-85030755D01*
X100638342Y-74167413D02*
X100638342Y-69206379D01*
X101325000Y-101750000D02*
X101350000Y-101725000D01*
X111450000Y-102250000D02*
X111450000Y-103462500D01*
X101350000Y-101725000D02*
X111000000Y-101725000D01*
X111000000Y-101725000D02*
X111450000Y-102250000D01*
X89775000Y-85030755D02*
X100638342Y-74167413D01*
%TO.N,P2 D+*%
X90775000Y-86350000D02*
X90775000Y-84737861D01*
X102200000Y-100925000D02*
X111900000Y-100925000D01*
X111900000Y-100925000D02*
X113350000Y-102375000D01*
X102175000Y-100900000D02*
X102200000Y-100925000D01*
X113350000Y-102375000D02*
X113350000Y-103462500D01*
X90775000Y-84737861D02*
X101138342Y-74374519D01*
X101138342Y-74374519D02*
X101138342Y-69206379D01*
%TO.N,P3 D-*%
X129487600Y-96551077D02*
X128925000Y-95700000D01*
X128200000Y-95550000D02*
X119975000Y-100175000D01*
X128925000Y-95700000D02*
X128200000Y-95550000D01*
X119975000Y-100175000D02*
X103025000Y-100125000D01*
%TO.N,P3 D+*%
X92450000Y-85700000D02*
X102638342Y-75511658D01*
X129375000Y-94175000D02*
X130400000Y-94475000D01*
X119925000Y-99400000D02*
X129375000Y-94175000D01*
X130400000Y-94475000D02*
X131090044Y-95530208D01*
X103800000Y-99300000D02*
X103900000Y-99400000D01*
X92450000Y-86000000D02*
X92450000Y-85700000D01*
X102638342Y-75511658D02*
X102638342Y-69206379D01*
X103900000Y-99400000D02*
X119925000Y-99400000D01*
%TO.N,VDD12*%
X96988342Y-61531379D02*
X96988342Y-63256379D01*
X107438342Y-66006379D02*
X107438342Y-61506379D01*
X97238342Y-63506379D02*
X97938342Y-63506379D01*
X107438342Y-61506379D02*
X110344721Y-58600000D01*
X110344721Y-58600000D02*
X112794721Y-58600000D01*
X106138342Y-66506379D02*
X106538342Y-66906379D01*
X106538342Y-66906379D02*
X107438342Y-66006379D01*
X99584578Y-58902614D02*
X99584578Y-58935143D01*
X104838342Y-66506379D02*
X106138342Y-66506379D01*
X100588342Y-57898850D02*
X100588342Y-56906379D01*
X112794721Y-58600000D02*
X113888342Y-57506379D01*
X99584578Y-58902614D02*
X100588342Y-57898850D01*
X99584578Y-58935143D02*
X96988342Y-61531379D01*
X96988342Y-63256379D02*
X97238342Y-63506379D01*
%TO.N,Net-(J1-PadA7)*%
X112913342Y-39056379D02*
X113138342Y-38831379D01*
X112138342Y-37701379D02*
X112138342Y-38726379D01*
X113138342Y-38831379D02*
X113138342Y-37701379D01*
X112463342Y-39056379D02*
X112913342Y-39056379D01*
X112138342Y-38726379D02*
X112438342Y-39026379D01*
X112438342Y-39031379D02*
X112463342Y-39056379D01*
X112438342Y-39026379D02*
X112438342Y-39031379D01*
%TO.N,UP D+*%
X104200000Y-51200000D02*
X100900000Y-51200000D01*
X98200000Y-53900000D02*
X98200000Y-56600000D01*
X97006379Y-65006379D02*
X97938342Y-65006379D01*
%TO.N,Net-(J1-PadA6)*%
X112638342Y-36682379D02*
X112638342Y-37701379D01*
X111925819Y-36388902D02*
X112344865Y-36388902D01*
%TO.N,UP D+*%
X98200000Y-56600000D02*
X95800000Y-59000000D01*
X95800000Y-63800000D02*
X97006379Y-65006379D01*
X95800000Y-59000000D02*
X95800000Y-63800000D01*
%TO.N,Net-(J1-PadA6)*%
X111638342Y-37701379D02*
X111638342Y-36676379D01*
%TO.N,UP D+*%
X100900000Y-51200000D02*
X98200000Y-53900000D01*
%TO.N,Net-(J1-PadA6)*%
X111638342Y-36676379D02*
X111925819Y-36388902D01*
X112344865Y-36388902D02*
X112638342Y-36682379D01*
%TO.N,VDD33*%
X102776195Y-58419732D02*
X102788342Y-58407585D01*
X104288342Y-69356379D02*
X104288342Y-70981379D01*
X102776195Y-58419732D02*
X101127414Y-58419732D01*
X106588342Y-62906379D02*
X106588342Y-64706379D01*
X96556236Y-72381379D02*
X94463342Y-72381379D01*
X104288342Y-70756379D02*
X104288342Y-70981379D01*
X109588342Y-57856379D02*
X109588342Y-57506379D01*
X97738342Y-69506379D02*
X97738342Y-71199273D01*
X106613342Y-62881379D02*
X106613342Y-60781379D01*
D47*
X111738342Y-57506379D02*
X109588342Y-57506379D01*
D46*
X91438342Y-73306379D02*
X93538342Y-73306379D01*
D45*
X94463342Y-72381379D02*
X93538342Y-73306379D01*
X102788342Y-56406379D02*
X102688342Y-56306379D01*
X97738342Y-71199273D02*
X96556236Y-72381379D01*
X104838342Y-66006379D02*
X105538342Y-66006379D01*
X106538342Y-65006379D02*
X106538342Y-64756379D01*
X97888342Y-61656379D02*
X97888342Y-62956379D01*
X105538342Y-66006379D02*
X106538342Y-65006379D01*
X101729479Y-60731879D02*
X102788342Y-60731879D01*
X98335917Y-61208804D02*
X97888342Y-61656379D01*
X97888342Y-62956379D02*
X97938342Y-63006379D01*
X97738342Y-69506379D02*
X97738342Y-68706379D01*
X106588342Y-69506379D02*
X105538342Y-69506379D01*
X102788342Y-58407585D02*
X102788342Y-56406379D01*
X106663342Y-60781379D02*
X109588342Y-57856379D01*
X100638342Y-61823016D02*
X101729479Y-60731879D01*
D47*
X97938342Y-68506379D02*
X97938342Y-68106379D01*
D45*
X101127414Y-58419732D02*
X98338342Y-61208804D01*
X97738342Y-68706379D02*
X97938342Y-68506379D01*
X102837842Y-60781379D02*
X106663342Y-60781379D01*
X102788342Y-60731879D02*
X102837842Y-60781379D01*
X105538342Y-69506379D02*
X104288342Y-70756379D01*
X98338342Y-61208804D02*
X98335917Y-61208804D01*
X100638342Y-62306379D02*
X100638342Y-61823016D01*
X104138342Y-69206379D02*
X104288342Y-69356379D01*
X106588342Y-62906379D02*
X106613342Y-62881379D01*
X106588342Y-64706379D02*
X106538342Y-64756379D01*
D46*
%TO.N,GND*%
X105888342Y-57756379D02*
X107288342Y-57756379D01*
D47*
X116081963Y-38900000D02*
X115638342Y-38456379D01*
X94813342Y-70806379D02*
X94988342Y-70631379D01*
X109060342Y-38809379D02*
X109138342Y-38731379D01*
D48*
X108438342Y-63406379D02*
X108438342Y-64756379D01*
D47*
X109060342Y-38956379D02*
X109060342Y-38809379D01*
D46*
X93513342Y-75231379D02*
X93538342Y-75206379D01*
X100588342Y-54456379D02*
X101238342Y-53806379D01*
X113888342Y-55606379D02*
X113888342Y-54556379D01*
D47*
X109138342Y-108088342D02*
X108475000Y-107425000D01*
X131511178Y-97959358D02*
X132300000Y-99200000D01*
X109138342Y-38731379D02*
X109138342Y-37701379D01*
D48*
X105688342Y-72206379D02*
X105688342Y-71481379D01*
D45*
X114700000Y-104550000D02*
X112900000Y-104550000D01*
D46*
X127210435Y-100901222D02*
X126100000Y-101700000D01*
X89388342Y-75168879D02*
X89388342Y-76156379D01*
D45*
X93288822Y-98059358D02*
X92550000Y-99250000D01*
D48*
X91313342Y-69456379D02*
X90138342Y-69456379D01*
D47*
X108475000Y-107425000D02*
X108400000Y-107350000D01*
D46*
X111738342Y-55606379D02*
X111738342Y-54556379D01*
D48*
X108164709Y-68256379D02*
X108438342Y-67982746D01*
D46*
X107400000Y-105950000D02*
X106050000Y-105950000D01*
D47*
X109138342Y-108361379D02*
X109138342Y-108088342D01*
D46*
X109800842Y-53456379D02*
X110938342Y-53456379D01*
D47*
X108400000Y-107350000D02*
X106825000Y-107350000D01*
D45*
X112400000Y-105050000D02*
X112400000Y-105737500D01*
D48*
X96204428Y-66432419D02*
X95480468Y-67156379D01*
D46*
X100588342Y-55006379D02*
X100588342Y-54456379D01*
D47*
X115638342Y-108361379D02*
X115638342Y-106988342D01*
X93638842Y-70806379D02*
X94813342Y-70806379D01*
D46*
X88789565Y-95401222D02*
X87675000Y-94675000D01*
X95638342Y-76206379D02*
X95638342Y-75206379D01*
D48*
X95480468Y-67156379D02*
X94988342Y-67156379D01*
D46*
X93513342Y-76206379D02*
X93513342Y-75231379D01*
D48*
X93013342Y-66031379D02*
X93013342Y-67256379D01*
D45*
X112900000Y-104550000D02*
X112400000Y-105050000D01*
D46*
X135871788Y-98357851D02*
X134900000Y-96900000D01*
X102688342Y-54406379D02*
X103038342Y-54406379D01*
X103038342Y-54406379D02*
X103838342Y-53606379D01*
D47*
X115638342Y-106988342D02*
X115625000Y-106975000D01*
D46*
X91438342Y-75206379D02*
X91438342Y-76206379D01*
D48*
X93038342Y-66006379D02*
X93013342Y-66031379D01*
D46*
X109588342Y-55606379D02*
X108288342Y-55606379D01*
D48*
X108138342Y-68256379D02*
X108164709Y-68256379D01*
D47*
X115638342Y-38456379D02*
X115638342Y-37701379D01*
X116100000Y-38900000D02*
X116081963Y-38900000D01*
D48*
X108438342Y-67982746D02*
X108438342Y-66906379D01*
X105688342Y-71481379D02*
X106188342Y-70981379D01*
D47*
X93488342Y-70956879D02*
X93638842Y-70806379D01*
D45*
%TO.N,Net-(J1-PadA5)*%
X113638342Y-36647263D02*
X113638342Y-37701379D01*
X113269958Y-36278879D02*
X113638342Y-36647263D01*
%TO.N,Net-(J3-PadA6)*%
X112908342Y-107056379D02*
X113138342Y-107286379D01*
X113138342Y-107286379D02*
X113138342Y-108361379D01*
X113138342Y-105949158D02*
X113350000Y-105737500D01*
X113138342Y-108361379D02*
X113138342Y-105949158D01*
X112418342Y-107056379D02*
X112908342Y-107056379D01*
X112138342Y-108361379D02*
X112138342Y-107336379D01*
X112138342Y-107336379D02*
X112418342Y-107056379D01*
%TO.N,Net-(J3-PadA7)*%
X112638342Y-108361379D02*
X112638342Y-109436379D01*
X111933342Y-109731379D02*
X111638342Y-109436379D01*
X111638342Y-105925842D02*
X111450000Y-105737500D01*
X111638342Y-109436379D02*
X111638342Y-108361379D01*
X112638342Y-109436379D02*
X112343342Y-109731379D01*
X112343342Y-109731379D02*
X111933342Y-109731379D01*
X111638342Y-108361379D02*
X111638342Y-105925842D01*
D47*
%TO.N,Net-(J4-Pad2)*%
X132076527Y-100775699D02*
X130709956Y-98469792D01*
%TO.N,Net-(J4-Pad3)*%
X133763310Y-99701100D02*
X132312400Y-97448923D01*
D45*
%TO.N,Net-(R3-Pad1)*%
X96138342Y-71806379D02*
X90488342Y-71806379D01*
X97938342Y-67506379D02*
X97338342Y-67506379D01*
X97338342Y-67506379D02*
X96888342Y-67956379D01*
X96888342Y-71056379D02*
X96138342Y-71806379D01*
X96888342Y-67956379D02*
X96888342Y-71056379D01*
X90488342Y-71806379D02*
X89388342Y-72906379D01*
X89388342Y-72906379D02*
X89388342Y-73343879D01*
%TD*%
M02*
