%TF.GenerationSoftware,KiCad,Pcbnew,(6.0.8)*%
%TF.CreationDate,2022-12-20T01:42:36-08:00*%
%TF.ProjectId,Anduril USB Hub,416e6475-7269-46c2-9055-534220487562,rev?*%
%TF.SameCoordinates,Original*%
%TF.FileFunction,Legend,Bot*%
%TF.FilePolarity,Positive*%
%FSLAX46Y46*%
G04 Gerber Fmt 4.6, Leading zero omitted, Abs format (unit mm)*
G04 Created by KiCad (PCBNEW (6.0.8)) date 2022-12-20 01:42:36*
%MOMM*%
%LPD*%
G01*
G04 APERTURE LIST*
%ADD10C,0.150000*%
%ADD11C,0.300000*%
G04 APERTURE END LIST*
D10*
X123714404Y-46462380D02*
X123714404Y-47271904D01*
X123666785Y-47367142D01*
X123619166Y-47414761D01*
X123523928Y-47462380D01*
X123333452Y-47462380D01*
X123238214Y-47414761D01*
X123190595Y-47367142D01*
X123142976Y-47271904D01*
X123142976Y-46462380D01*
X122714404Y-47414761D02*
X122571547Y-47462380D01*
X122333452Y-47462380D01*
X122238214Y-47414761D01*
X122190595Y-47367142D01*
X122142976Y-47271904D01*
X122142976Y-47176666D01*
X122190595Y-47081428D01*
X122238214Y-47033809D01*
X122333452Y-46986190D01*
X122523928Y-46938571D01*
X122619166Y-46890952D01*
X122666785Y-46843333D01*
X122714404Y-46748095D01*
X122714404Y-46652857D01*
X122666785Y-46557619D01*
X122619166Y-46510000D01*
X122523928Y-46462380D01*
X122285833Y-46462380D01*
X122142976Y-46510000D01*
X121381071Y-46938571D02*
X121238214Y-46986190D01*
X121190595Y-47033809D01*
X121142976Y-47129047D01*
X121142976Y-47271904D01*
X121190595Y-47367142D01*
X121238214Y-47414761D01*
X121333452Y-47462380D01*
X121714404Y-47462380D01*
X121714404Y-46462380D01*
X121381071Y-46462380D01*
X121285833Y-46510000D01*
X121238214Y-46557619D01*
X121190595Y-46652857D01*
X121190595Y-46748095D01*
X121238214Y-46843333D01*
X121285833Y-46890952D01*
X121381071Y-46938571D01*
X121714404Y-46938571D01*
X120000119Y-46557619D02*
X119952500Y-46510000D01*
X119857261Y-46462380D01*
X119619166Y-46462380D01*
X119523928Y-46510000D01*
X119476309Y-46557619D01*
X119428690Y-46652857D01*
X119428690Y-46748095D01*
X119476309Y-46890952D01*
X120047738Y-47462380D01*
X119428690Y-47462380D01*
X119000119Y-47367142D02*
X118952500Y-47414761D01*
X119000119Y-47462380D01*
X119047738Y-47414761D01*
X119000119Y-47367142D01*
X119000119Y-47462380D01*
X118333452Y-46462380D02*
X118238214Y-46462380D01*
X118142976Y-46510000D01*
X118095357Y-46557619D01*
X118047738Y-46652857D01*
X118000119Y-46843333D01*
X118000119Y-47081428D01*
X118047738Y-47271904D01*
X118095357Y-47367142D01*
X118142976Y-47414761D01*
X118238214Y-47462380D01*
X118333452Y-47462380D01*
X118428690Y-47414761D01*
X118476309Y-47367142D01*
X118523928Y-47271904D01*
X118571547Y-47081428D01*
X118571547Y-46843333D01*
X118523928Y-46652857D01*
X118476309Y-46557619D01*
X118428690Y-46510000D01*
X118333452Y-46462380D01*
X123238214Y-48072380D02*
X123714404Y-48072380D01*
X123762023Y-48548571D01*
X123714404Y-48500952D01*
X123619166Y-48453333D01*
X123381071Y-48453333D01*
X123285833Y-48500952D01*
X123238214Y-48548571D01*
X123190595Y-48643809D01*
X123190595Y-48881904D01*
X123238214Y-48977142D01*
X123285833Y-49024761D01*
X123381071Y-49072380D01*
X123619166Y-49072380D01*
X123714404Y-49024761D01*
X123762023Y-48977142D01*
X122571547Y-48072380D02*
X122476309Y-48072380D01*
X122381071Y-48120000D01*
X122333452Y-48167619D01*
X122285833Y-48262857D01*
X122238214Y-48453333D01*
X122238214Y-48691428D01*
X122285833Y-48881904D01*
X122333452Y-48977142D01*
X122381071Y-49024761D01*
X122476309Y-49072380D01*
X122571547Y-49072380D01*
X122666785Y-49024761D01*
X122714404Y-48977142D01*
X122762023Y-48881904D01*
X122809642Y-48691428D01*
X122809642Y-48453333D01*
X122762023Y-48262857D01*
X122714404Y-48167619D01*
X122666785Y-48120000D01*
X122571547Y-48072380D01*
X121619166Y-48072380D02*
X121523928Y-48072380D01*
X121428690Y-48120000D01*
X121381071Y-48167619D01*
X121333452Y-48262857D01*
X121285833Y-48453333D01*
X121285833Y-48691428D01*
X121333452Y-48881904D01*
X121381071Y-48977142D01*
X121428690Y-49024761D01*
X121523928Y-49072380D01*
X121619166Y-49072380D01*
X121714404Y-49024761D01*
X121762023Y-48977142D01*
X121809642Y-48881904D01*
X121857261Y-48691428D01*
X121857261Y-48453333D01*
X121809642Y-48262857D01*
X121762023Y-48167619D01*
X121714404Y-48120000D01*
X121619166Y-48072380D01*
X120857261Y-49072380D02*
X120857261Y-48405714D01*
X120857261Y-48500952D02*
X120809642Y-48453333D01*
X120714404Y-48405714D01*
X120571547Y-48405714D01*
X120476309Y-48453333D01*
X120428690Y-48548571D01*
X120428690Y-49072380D01*
X120428690Y-48548571D02*
X120381071Y-48453333D01*
X120285833Y-48405714D01*
X120142976Y-48405714D01*
X120047738Y-48453333D01*
X120000119Y-48548571D01*
X120000119Y-49072380D01*
X119571547Y-48786666D02*
X119095357Y-48786666D01*
X119666785Y-49072380D02*
X119333452Y-48072380D01*
X119000119Y-49072380D01*
X117904880Y-49072380D02*
X117904880Y-48072380D01*
X117428690Y-48405714D02*
X117428690Y-49072380D01*
X117428690Y-48500952D02*
X117381071Y-48453333D01*
X117285833Y-48405714D01*
X117142976Y-48405714D01*
X117047738Y-48453333D01*
X117000119Y-48548571D01*
X117000119Y-49072380D01*
X116523928Y-48405714D02*
X116523928Y-49405714D01*
X116523928Y-48453333D02*
X116428690Y-48405714D01*
X116238214Y-48405714D01*
X116142976Y-48453333D01*
X116095357Y-48500952D01*
X116047738Y-48596190D01*
X116047738Y-48881904D01*
X116095357Y-48977142D01*
X116142976Y-49024761D01*
X116238214Y-49072380D01*
X116428690Y-49072380D01*
X116523928Y-49024761D01*
X115190595Y-48405714D02*
X115190595Y-49072380D01*
X115619166Y-48405714D02*
X115619166Y-48929523D01*
X115571547Y-49024761D01*
X115476309Y-49072380D01*
X115333452Y-49072380D01*
X115238214Y-49024761D01*
X115190595Y-48977142D01*
X114857261Y-48405714D02*
X114476309Y-48405714D01*
X114714404Y-48072380D02*
X114714404Y-48929523D01*
X114666785Y-49024761D01*
X114571547Y-49072380D01*
X114476309Y-49072380D01*
X113523928Y-48405714D02*
X113142976Y-48405714D01*
X113381071Y-49072380D02*
X113381071Y-48215238D01*
X113333452Y-48120000D01*
X113238214Y-48072380D01*
X113142976Y-48072380D01*
X112381071Y-48405714D02*
X112381071Y-49072380D01*
X112809642Y-48405714D02*
X112809642Y-48929523D01*
X112762023Y-49024761D01*
X112666785Y-49072380D01*
X112523928Y-49072380D01*
X112428690Y-49024761D01*
X112381071Y-48977142D01*
X111952500Y-49024761D02*
X111857261Y-49072380D01*
X111666785Y-49072380D01*
X111571547Y-49024761D01*
X111523928Y-48929523D01*
X111523928Y-48881904D01*
X111571547Y-48786666D01*
X111666785Y-48739047D01*
X111809642Y-48739047D01*
X111904880Y-48691428D01*
X111952500Y-48596190D01*
X111952500Y-48548571D01*
X111904880Y-48453333D01*
X111809642Y-48405714D01*
X111666785Y-48405714D01*
X111571547Y-48453333D01*
X110714404Y-49024761D02*
X110809642Y-49072380D01*
X111000119Y-49072380D01*
X111095357Y-49024761D01*
X111142976Y-48929523D01*
X111142976Y-48548571D01*
X111095357Y-48453333D01*
X111000119Y-48405714D01*
X110809642Y-48405714D01*
X110714404Y-48453333D01*
X110666785Y-48548571D01*
X110666785Y-48643809D01*
X111142976Y-48739047D01*
X123809642Y-49682380D02*
X123190595Y-49682380D01*
X123523928Y-50063333D01*
X123381071Y-50063333D01*
X123285833Y-50110952D01*
X123238214Y-50158571D01*
X123190595Y-50253809D01*
X123190595Y-50491904D01*
X123238214Y-50587142D01*
X123285833Y-50634761D01*
X123381071Y-50682380D01*
X123666785Y-50682380D01*
X123762023Y-50634761D01*
X123809642Y-50587142D01*
X122285833Y-49682380D02*
X122762023Y-49682380D01*
X122809642Y-50158571D01*
X122762023Y-50110952D01*
X122666785Y-50063333D01*
X122428690Y-50063333D01*
X122333452Y-50110952D01*
X122285833Y-50158571D01*
X122238214Y-50253809D01*
X122238214Y-50491904D01*
X122285833Y-50587142D01*
X122333452Y-50634761D01*
X122428690Y-50682380D01*
X122666785Y-50682380D01*
X122762023Y-50634761D01*
X122809642Y-50587142D01*
X121619166Y-49682380D02*
X121523928Y-49682380D01*
X121428690Y-49730000D01*
X121381071Y-49777619D01*
X121333452Y-49872857D01*
X121285833Y-50063333D01*
X121285833Y-50301428D01*
X121333452Y-50491904D01*
X121381071Y-50587142D01*
X121428690Y-50634761D01*
X121523928Y-50682380D01*
X121619166Y-50682380D01*
X121714404Y-50634761D01*
X121762023Y-50587142D01*
X121809642Y-50491904D01*
X121857261Y-50301428D01*
X121857261Y-50063333D01*
X121809642Y-49872857D01*
X121762023Y-49777619D01*
X121714404Y-49730000D01*
X121619166Y-49682380D01*
X120857261Y-50682380D02*
X120857261Y-50015714D01*
X120857261Y-50110952D02*
X120809642Y-50063333D01*
X120714404Y-50015714D01*
X120571547Y-50015714D01*
X120476309Y-50063333D01*
X120428690Y-50158571D01*
X120428690Y-50682380D01*
X120428690Y-50158571D02*
X120381071Y-50063333D01*
X120285833Y-50015714D01*
X120142976Y-50015714D01*
X120047738Y-50063333D01*
X120000119Y-50158571D01*
X120000119Y-50682380D01*
X119571547Y-50396666D02*
X119095357Y-50396666D01*
X119666785Y-50682380D02*
X119333452Y-49682380D01*
X119000119Y-50682380D01*
X117714404Y-49682380D02*
X117523928Y-49682380D01*
X117428690Y-49730000D01*
X117333452Y-49825238D01*
X117285833Y-50015714D01*
X117285833Y-50349047D01*
X117333452Y-50539523D01*
X117428690Y-50634761D01*
X117523928Y-50682380D01*
X117714404Y-50682380D01*
X117809642Y-50634761D01*
X117904880Y-50539523D01*
X117952500Y-50349047D01*
X117952500Y-50015714D01*
X117904880Y-49825238D01*
X117809642Y-49730000D01*
X117714404Y-49682380D01*
X116428690Y-50015714D02*
X116428690Y-50682380D01*
X116857261Y-50015714D02*
X116857261Y-50539523D01*
X116809642Y-50634761D01*
X116714404Y-50682380D01*
X116571547Y-50682380D01*
X116476309Y-50634761D01*
X116428690Y-50587142D01*
X116095357Y-50015714D02*
X115714404Y-50015714D01*
X115952500Y-49682380D02*
X115952500Y-50539523D01*
X115904880Y-50634761D01*
X115809642Y-50682380D01*
X115714404Y-50682380D01*
X115381071Y-50015714D02*
X115381071Y-51015714D01*
X115381071Y-50063333D02*
X115285833Y-50015714D01*
X115095357Y-50015714D01*
X115000119Y-50063333D01*
X114952500Y-50110952D01*
X114904880Y-50206190D01*
X114904880Y-50491904D01*
X114952500Y-50587142D01*
X115000119Y-50634761D01*
X115095357Y-50682380D01*
X115285833Y-50682380D01*
X115381071Y-50634761D01*
X114047738Y-50015714D02*
X114047738Y-50682380D01*
X114476309Y-50015714D02*
X114476309Y-50539523D01*
X114428690Y-50634761D01*
X114333452Y-50682380D01*
X114190595Y-50682380D01*
X114095357Y-50634761D01*
X114047738Y-50587142D01*
X113714404Y-50015714D02*
X113333452Y-50015714D01*
X113571547Y-49682380D02*
X113571547Y-50539523D01*
X113523928Y-50634761D01*
X113428690Y-50682380D01*
X113333452Y-50682380D01*
X112381071Y-50015714D02*
X112000119Y-50015714D01*
X112238214Y-50682380D02*
X112238214Y-49825238D01*
X112190595Y-49730000D01*
X112095357Y-49682380D01*
X112000119Y-49682380D01*
X111238214Y-50015714D02*
X111238214Y-50682380D01*
X111666785Y-50015714D02*
X111666785Y-50539523D01*
X111619166Y-50634761D01*
X111523928Y-50682380D01*
X111381071Y-50682380D01*
X111285833Y-50634761D01*
X111238214Y-50587142D01*
X110809642Y-50634761D02*
X110714404Y-50682380D01*
X110523928Y-50682380D01*
X110428690Y-50634761D01*
X110381071Y-50539523D01*
X110381071Y-50491904D01*
X110428690Y-50396666D01*
X110523928Y-50349047D01*
X110666785Y-50349047D01*
X110762023Y-50301428D01*
X110809642Y-50206190D01*
X110809642Y-50158571D01*
X110762023Y-50063333D01*
X110666785Y-50015714D01*
X110523928Y-50015714D01*
X110428690Y-50063333D01*
X109571547Y-50634761D02*
X109666785Y-50682380D01*
X109857261Y-50682380D01*
X109952500Y-50634761D01*
X110000119Y-50539523D01*
X110000119Y-50158571D01*
X109952500Y-50063333D01*
X109857261Y-50015714D01*
X109666785Y-50015714D01*
X109571547Y-50063333D01*
X109523928Y-50158571D01*
X109523928Y-50253809D01*
X110000119Y-50349047D01*
X117619166Y-51625714D02*
X117619166Y-52625714D01*
X117619166Y-51673333D02*
X117523928Y-51625714D01*
X117333452Y-51625714D01*
X117238214Y-51673333D01*
X117190595Y-51720952D01*
X117142976Y-51816190D01*
X117142976Y-52101904D01*
X117190595Y-52197142D01*
X117238214Y-52244761D01*
X117333452Y-52292380D01*
X117523928Y-52292380D01*
X117619166Y-52244761D01*
X116333452Y-52244761D02*
X116428690Y-52292380D01*
X116619166Y-52292380D01*
X116714404Y-52244761D01*
X116762023Y-52149523D01*
X116762023Y-51768571D01*
X116714404Y-51673333D01*
X116619166Y-51625714D01*
X116428690Y-51625714D01*
X116333452Y-51673333D01*
X116285833Y-51768571D01*
X116285833Y-51863809D01*
X116762023Y-51959047D01*
X115857261Y-52292380D02*
X115857261Y-51625714D01*
X115857261Y-51816190D02*
X115809642Y-51720952D01*
X115762023Y-51673333D01*
X115666785Y-51625714D01*
X115571547Y-51625714D01*
X114476309Y-51625714D02*
X114476309Y-52625714D01*
X114476309Y-51673333D02*
X114381071Y-51625714D01*
X114190595Y-51625714D01*
X114095357Y-51673333D01*
X114047738Y-51720952D01*
X114000119Y-51816190D01*
X114000119Y-52101904D01*
X114047738Y-52197142D01*
X114095357Y-52244761D01*
X114190595Y-52292380D01*
X114381071Y-52292380D01*
X114476309Y-52244761D01*
X113428690Y-52292380D02*
X113523928Y-52244761D01*
X113571547Y-52197142D01*
X113619166Y-52101904D01*
X113619166Y-51816190D01*
X113571547Y-51720952D01*
X113523928Y-51673333D01*
X113428690Y-51625714D01*
X113285833Y-51625714D01*
X113190595Y-51673333D01*
X113142976Y-51720952D01*
X113095357Y-51816190D01*
X113095357Y-52101904D01*
X113142976Y-52197142D01*
X113190595Y-52244761D01*
X113285833Y-52292380D01*
X113428690Y-52292380D01*
X112666785Y-52292380D02*
X112666785Y-51625714D01*
X112666785Y-51816190D02*
X112619166Y-51720952D01*
X112571547Y-51673333D01*
X112476309Y-51625714D01*
X112381071Y-51625714D01*
X112190595Y-51625714D02*
X111809642Y-51625714D01*
X112047738Y-51292380D02*
X112047738Y-52149523D01*
X112000119Y-52244761D01*
X111904880Y-52292380D01*
X111809642Y-52292380D01*
D11*
X141467849Y-82604449D02*
X141008715Y-82057275D01*
X141231371Y-82989365D02*
X142059044Y-81642161D01*
X140588584Y-82223320D01*
X141033234Y-81197510D02*
X140267190Y-81840298D01*
X140923799Y-81289337D02*
X140932603Y-81188706D01*
X140895494Y-81033358D01*
X140757754Y-80869205D01*
X140611210Y-80805684D01*
X140455861Y-80842793D01*
X139853969Y-81347841D01*
X138981615Y-80308209D02*
X140130681Y-79344028D01*
X139036332Y-80262296D02*
X139073441Y-80417644D01*
X139257095Y-80636514D01*
X139403639Y-80700035D01*
X139504270Y-80708839D01*
X139659618Y-80671730D01*
X139987923Y-80396250D01*
X140051445Y-80249705D01*
X140060249Y-80149074D01*
X140023139Y-79993726D01*
X139839486Y-79774856D01*
X139692941Y-79711335D01*
X138875304Y-78625790D02*
X138109260Y-79268577D01*
X139288525Y-79118247D02*
X138686633Y-79623294D01*
X138531285Y-79660403D01*
X138384740Y-79596882D01*
X138247000Y-79432730D01*
X138209891Y-79277381D01*
X138218695Y-79176750D01*
X137650126Y-78721403D02*
X138416170Y-78078615D01*
X138197300Y-78262269D02*
X138260822Y-78115724D01*
X138269626Y-78015093D01*
X138232517Y-77859745D01*
X138140690Y-77750310D01*
X137053252Y-78010076D02*
X137819296Y-77367288D01*
X138202318Y-77045894D02*
X138193514Y-77146525D01*
X138092883Y-77137721D01*
X138101687Y-77037090D01*
X138202318Y-77045894D01*
X138092883Y-77137721D01*
X136456377Y-77298749D02*
X136602922Y-77362270D01*
X136758270Y-77325161D01*
X137743184Y-76498720D01*
X136503523Y-75021348D02*
X135573326Y-75801876D01*
X135417977Y-75838985D01*
X135317347Y-75830181D01*
X135170802Y-75766660D01*
X134987149Y-75547790D01*
X134950039Y-75392442D01*
X134958843Y-75291811D01*
X135022365Y-75145266D01*
X135952562Y-74364739D01*
X134444992Y-74790550D02*
X134252534Y-74672311D01*
X134022967Y-74398723D01*
X133985858Y-74243375D01*
X133994662Y-74142744D01*
X134058183Y-73996200D01*
X134167618Y-73904373D01*
X134322967Y-73867264D01*
X134423598Y-73876068D01*
X134570142Y-73939589D01*
X134808513Y-74112546D01*
X134955057Y-74176067D01*
X135055688Y-74184871D01*
X135211036Y-74147762D01*
X135320471Y-74055935D01*
X135383993Y-73909391D01*
X135392797Y-73808760D01*
X135355688Y-73653412D01*
X135126121Y-73379824D01*
X134933663Y-73261585D01*
X133706591Y-72799327D02*
X133514134Y-72681088D01*
X133413503Y-72672284D01*
X133258154Y-72709393D01*
X133094002Y-72847133D01*
X133030481Y-72993677D01*
X133021676Y-73094308D01*
X133058786Y-73249657D01*
X133426093Y-73687396D01*
X134575160Y-72723215D01*
X134253766Y-72340193D01*
X134107222Y-72276671D01*
X134006591Y-72267867D01*
X133851242Y-72304976D01*
X133741808Y-72396803D01*
X133678286Y-72543347D01*
X133669482Y-72643978D01*
X133706591Y-72799327D01*
X134027985Y-73182349D01*
X131727297Y-71662850D02*
X132876364Y-70698669D01*
X132329189Y-71157803D02*
X131778228Y-70501193D01*
X131176336Y-71006241D02*
X132325403Y-70042059D01*
X131070026Y-69323821D02*
X130303982Y-69966609D01*
X131483247Y-69816279D02*
X130881355Y-70321326D01*
X130726006Y-70358435D01*
X130579462Y-70294914D01*
X130441722Y-70130761D01*
X130404613Y-69975413D01*
X130413417Y-69874782D01*
X129844848Y-69419434D02*
X130993914Y-68455253D01*
X130556175Y-68822560D02*
X130519065Y-68667212D01*
X130335412Y-68448342D01*
X130188868Y-68384820D01*
X130088237Y-68376016D01*
X129932888Y-68413126D01*
X129604584Y-68688606D01*
X129541062Y-68835150D01*
X129532258Y-68935781D01*
X129569367Y-69091130D01*
X129753021Y-69309999D01*
X129899565Y-69373521D01*
X129095750Y-66970971D02*
X128100139Y-67340171D01*
X128636616Y-66423796D01*
X126998217Y-66026952D02*
X127549178Y-66683561D01*
X127273697Y-66355257D02*
X128422764Y-65391075D01*
X128350438Y-65638250D01*
X128332830Y-65839512D01*
X128369940Y-65994860D01*
X126694431Y-65442668D02*
X126593800Y-65433864D01*
X126584996Y-65534495D01*
X126685627Y-65543299D01*
X126694431Y-65442668D01*
X126584996Y-65534495D01*
X125620815Y-64385428D02*
X126171776Y-65042038D01*
X125896295Y-64713733D02*
X127045362Y-63749551D01*
X126973036Y-63996726D01*
X126955428Y-64197988D01*
X126992538Y-64353337D01*
X135220863Y-79361146D02*
X135120232Y-79352342D01*
X135111428Y-79452973D01*
X135212059Y-79461777D01*
X135220863Y-79361146D01*
X135111428Y-79452973D01*
X135822755Y-78856098D02*
X135722124Y-78847294D01*
X135713320Y-78947925D01*
X135813951Y-78956729D01*
X135822755Y-78856098D01*
X135713320Y-78947925D01*
X134652294Y-78905798D02*
X135801361Y-77941617D01*
X135571794Y-77668029D01*
X135379336Y-77549790D01*
X135178074Y-77532182D01*
X135022726Y-77569292D01*
X134757943Y-77698228D01*
X134593790Y-77835968D01*
X134420834Y-78074339D01*
X134357312Y-78220883D01*
X134339704Y-78422145D01*
X134422727Y-78632211D01*
X134652294Y-78905798D01*
X132540277Y-76388795D02*
X133689344Y-75424614D01*
X132594995Y-76342882D02*
X132632104Y-76498230D01*
X132815758Y-76717100D01*
X132962302Y-76780621D01*
X133062933Y-76789425D01*
X133218281Y-76752316D01*
X133546586Y-76476836D01*
X133610108Y-76330291D01*
X133618912Y-76229660D01*
X133581802Y-76074312D01*
X133398149Y-75855442D01*
X133251604Y-75791921D01*
X131768554Y-75357967D02*
X131805663Y-75513316D01*
X131989317Y-75732185D01*
X132135861Y-75795707D01*
X132291209Y-75758598D01*
X132728949Y-75391290D01*
X132792470Y-75244746D01*
X132755361Y-75089398D01*
X132571707Y-74870528D01*
X132425163Y-74807006D01*
X132269815Y-74844116D01*
X132160380Y-74935943D01*
X132510079Y-75574944D01*
X131355333Y-74865510D02*
X131208789Y-74801989D01*
X131025135Y-74583119D01*
X130988026Y-74427770D01*
X131051547Y-74281226D01*
X131106265Y-74235313D01*
X131261613Y-74198203D01*
X131408157Y-74261725D01*
X131545898Y-74425877D01*
X131692442Y-74489399D01*
X131847790Y-74452289D01*
X131902508Y-74406376D01*
X131966029Y-74259832D01*
X131928920Y-74104484D01*
X131791180Y-73940331D01*
X131644635Y-73876810D01*
X130474174Y-73926509D02*
X131240219Y-73283722D01*
X131623241Y-72962328D02*
X131614437Y-73062959D01*
X131513806Y-73054155D01*
X131522610Y-72953524D01*
X131623241Y-72962328D01*
X131513806Y-73054155D01*
X130367864Y-72244090D02*
X129437667Y-73024618D01*
X129374146Y-73171162D01*
X129365342Y-73271793D01*
X129402451Y-73427141D01*
X129540191Y-73591294D01*
X129686736Y-73654815D01*
X129656537Y-72840964D02*
X129693647Y-72996312D01*
X129877300Y-73215182D01*
X130023844Y-73278704D01*
X130124475Y-73287508D01*
X130279824Y-73250398D01*
X130608128Y-72974918D01*
X130671650Y-72828374D01*
X130680454Y-72727743D01*
X130643345Y-72572395D01*
X130459691Y-72353525D01*
X130313147Y-72290003D01*
X129908730Y-71696915D02*
X129142686Y-72339703D01*
X129799295Y-71788742D02*
X129808099Y-71688111D01*
X129770990Y-71532763D01*
X129633250Y-71368611D01*
X129486706Y-71305089D01*
X129331357Y-71342198D01*
X128729465Y-71847246D01*
X128370962Y-71308875D02*
X128224418Y-71245354D01*
X128040764Y-71026484D01*
X128003655Y-70871136D01*
X128067176Y-70724591D01*
X128121894Y-70678678D01*
X128277242Y-70641569D01*
X128423786Y-70705090D01*
X128561527Y-70869242D01*
X128708071Y-70932764D01*
X128863419Y-70895655D01*
X128918137Y-70849741D01*
X128981658Y-70703197D01*
X128944549Y-70547849D01*
X128806809Y-70383696D01*
X128660264Y-70320175D01*
X139468213Y-86846536D02*
X138538016Y-87627064D01*
X138474495Y-87773608D01*
X138465691Y-87874239D01*
X138502800Y-88029587D01*
X138640540Y-88193740D01*
X138787085Y-88257261D01*
X138756886Y-87443410D02*
X138793996Y-87598759D01*
X138977649Y-87817629D01*
X139124194Y-87881150D01*
X139224824Y-87889954D01*
X139380173Y-87852845D01*
X139708477Y-87577364D01*
X139771999Y-87430820D01*
X139780803Y-87330189D01*
X139743694Y-87174841D01*
X139560040Y-86955971D01*
X139413496Y-86892450D01*
X138243035Y-86942149D02*
X139009079Y-86299362D01*
X139392102Y-85977968D02*
X139383297Y-86078599D01*
X139282667Y-86069795D01*
X139291471Y-85969164D01*
X139392102Y-85977968D01*
X139282667Y-86069795D01*
X138687685Y-85916339D02*
X138320378Y-85478600D01*
X138932968Y-85430793D02*
X137948053Y-86257234D01*
X137792705Y-86294344D01*
X137646161Y-86230822D01*
X137554334Y-86121387D01*
X137232940Y-85738365D02*
X138382007Y-84774184D01*
X136819719Y-85245908D02*
X137421611Y-84740860D01*
X137576960Y-84703751D01*
X137723504Y-84767273D01*
X137861244Y-84931425D01*
X137898354Y-85086773D01*
X137889550Y-85187404D01*
X136713409Y-83563489D02*
X135947365Y-84206276D01*
X137126630Y-84055946D02*
X136524738Y-84560993D01*
X136369389Y-84598102D01*
X136222845Y-84534581D01*
X136085105Y-84370429D01*
X136047996Y-84215080D01*
X136056800Y-84114449D01*
X135488231Y-83659102D02*
X136637297Y-82694920D01*
X136199558Y-83062227D02*
X136162448Y-82906879D01*
X135978795Y-82688009D01*
X135832251Y-82624488D01*
X135731620Y-82615684D01*
X135576271Y-82652793D01*
X135247967Y-82928273D01*
X135184445Y-83074818D01*
X135175641Y-83175448D01*
X135212750Y-83330797D01*
X135396404Y-83549667D01*
X135542948Y-83613188D01*
X134725311Y-82527643D02*
X134624680Y-82518839D01*
X134615876Y-82619470D01*
X134716507Y-82628274D01*
X134725311Y-82527643D01*
X134615876Y-82619470D01*
X133798239Y-81533925D02*
X133835348Y-81689273D01*
X134019002Y-81908143D01*
X134165546Y-81971664D01*
X134266177Y-81980468D01*
X134421525Y-81943359D01*
X134749830Y-81667879D01*
X134813352Y-81521334D01*
X134822156Y-81420704D01*
X134785046Y-81265355D01*
X134601393Y-81046485D01*
X134454849Y-80982964D01*
X133192561Y-80923229D02*
X133339105Y-80986750D01*
X133439736Y-80995554D01*
X133595084Y-80958445D01*
X133923389Y-80682964D01*
X133986911Y-80536420D01*
X133995715Y-80435789D01*
X133958605Y-80280441D01*
X133820865Y-80116289D01*
X133674321Y-80052767D01*
X133573690Y-80043963D01*
X133418342Y-80081072D01*
X133090037Y-80356553D01*
X133026515Y-80503097D01*
X133017711Y-80603728D01*
X133054821Y-80759076D01*
X133192561Y-80923229D01*
X132457946Y-80047749D02*
X133223991Y-79404962D01*
X133114556Y-79496788D02*
X133123360Y-79396157D01*
X133086251Y-79240809D01*
X132948510Y-79076657D01*
X132801966Y-79013135D01*
X132646618Y-79050245D01*
X132044726Y-79555292D01*
X132646618Y-79050245D02*
X132710139Y-78903700D01*
X132673030Y-78748352D01*
X132535290Y-78584200D01*
X132388746Y-78520678D01*
X132233397Y-78557787D01*
X131631505Y-79062835D01*
X131687454Y-76684804D02*
X131036524Y-78909380D01*
X129803773Y-76773506D02*
X129840883Y-76928854D01*
X130024536Y-77147724D01*
X130171080Y-77211245D01*
X130271711Y-77220049D01*
X130427060Y-77182940D01*
X130755364Y-76907460D01*
X130818886Y-76760915D01*
X130827690Y-76660284D01*
X130790581Y-76504936D01*
X130606927Y-76286066D01*
X130460383Y-76222545D01*
X129198095Y-76162809D02*
X129344639Y-76226331D01*
X129445270Y-76235135D01*
X129600618Y-76198026D01*
X129928923Y-75922545D01*
X129992445Y-75776001D01*
X130001249Y-75675370D01*
X129964139Y-75520022D01*
X129826399Y-75355869D01*
X129679855Y-75292348D01*
X129579224Y-75283544D01*
X129423876Y-75320653D01*
X129095571Y-75596134D01*
X129032049Y-75742678D01*
X129023245Y-75843309D01*
X129060355Y-75998657D01*
X129198095Y-76162809D01*
X128325740Y-75123178D02*
X128472285Y-75186699D01*
X128627633Y-75149590D01*
X129612547Y-74323149D01*
X127820693Y-74521286D02*
X127967237Y-74584807D01*
X128067868Y-74593611D01*
X128223216Y-74556502D01*
X128551521Y-74281022D01*
X128615043Y-74134477D01*
X128623847Y-74033846D01*
X128586737Y-73878498D01*
X128448997Y-73714346D01*
X128302453Y-73650824D01*
X128201822Y-73642020D01*
X128046474Y-73679129D01*
X127718169Y-73954610D01*
X127654647Y-74101154D01*
X127645843Y-74201785D01*
X127682953Y-74357133D01*
X127820693Y-74521286D01*
X127852123Y-73003019D02*
X127086078Y-73645806D01*
X127742688Y-73094845D02*
X127751492Y-72994215D01*
X127714383Y-72838866D01*
X127576643Y-72674714D01*
X127430098Y-72611192D01*
X127274750Y-72648302D01*
X126672858Y-73153349D01*
X126213724Y-72606175D02*
X127362791Y-71641993D01*
X127133224Y-71368406D01*
X126940766Y-71250167D01*
X126739504Y-71232559D01*
X126584156Y-71269668D01*
X126319373Y-71398604D01*
X126155220Y-71536344D01*
X125982264Y-71774715D01*
X125918742Y-71921260D01*
X125901134Y-72122521D01*
X125984157Y-72332587D01*
X126213724Y-72606175D01*
X124836322Y-70964651D02*
X125985389Y-70000469D01*
X124891039Y-70918737D02*
X124928149Y-71074086D01*
X125111802Y-71292956D01*
X125258347Y-71356477D01*
X125358977Y-71365281D01*
X125514326Y-71328172D01*
X125842630Y-71052691D01*
X125906152Y-70906147D01*
X125914956Y-70805516D01*
X125877847Y-70650168D01*
X125694193Y-70431298D01*
X125547649Y-70367777D01*
X124064598Y-69933823D02*
X124101707Y-70089171D01*
X124285361Y-70308041D01*
X124431905Y-70371563D01*
X124587254Y-70334453D01*
X125024993Y-69967146D01*
X125088515Y-69820602D01*
X125051405Y-69665254D01*
X124867752Y-69446384D01*
X124721208Y-69382862D01*
X124565859Y-69419972D01*
X124456424Y-69511798D01*
X124806123Y-70150800D01*
X123651377Y-69441366D02*
X123504833Y-69377844D01*
X123321180Y-69158975D01*
X123284070Y-69003626D01*
X123347592Y-68857082D01*
X123402309Y-68811169D01*
X123557658Y-68774059D01*
X123704202Y-68837581D01*
X123841942Y-69001733D01*
X123988486Y-69065255D01*
X124143835Y-69028145D01*
X124198552Y-68982232D01*
X124262074Y-68835688D01*
X124224964Y-68680339D01*
X124087224Y-68516187D01*
X123940680Y-68452665D01*
X122770219Y-68502365D02*
X123536263Y-67859577D01*
X123919285Y-67538184D02*
X123910481Y-67638814D01*
X123809851Y-67630010D01*
X123818655Y-67529380D01*
X123919285Y-67538184D01*
X123809851Y-67630010D01*
X122663909Y-66819946D02*
X121733712Y-67600474D01*
X121670190Y-67747018D01*
X121661386Y-67847649D01*
X121698496Y-68002997D01*
X121836236Y-68167149D01*
X121982780Y-68230671D01*
X121952582Y-67416820D02*
X121989691Y-67572168D01*
X122173345Y-67791038D01*
X122319889Y-67854560D01*
X122420520Y-67863364D01*
X122575868Y-67826254D01*
X122904173Y-67550774D01*
X122967694Y-67404230D01*
X122976498Y-67303599D01*
X122939389Y-67148250D01*
X122755735Y-66929381D01*
X122609191Y-66865859D01*
X122204775Y-66272771D02*
X121438730Y-66915559D01*
X122095340Y-66364598D02*
X122104144Y-66263967D01*
X122067034Y-66108619D01*
X121929294Y-65944466D01*
X121782750Y-65880945D01*
X121627402Y-65918054D01*
X121025510Y-66423102D01*
X120667006Y-65884731D02*
X120520462Y-65821209D01*
X120336809Y-65602340D01*
X120299699Y-65446991D01*
X120363221Y-65300447D01*
X120417938Y-65254534D01*
X120573287Y-65217424D01*
X120719831Y-65280946D01*
X120857571Y-65445098D01*
X121004115Y-65508620D01*
X121159464Y-65471510D01*
X121214181Y-65425597D01*
X121277703Y-65279053D01*
X121240593Y-65123704D01*
X121102853Y-64959552D01*
X120956309Y-64896031D01*
X131112997Y-82201973D02*
X132262063Y-81237792D01*
X132032496Y-80964204D01*
X131840039Y-80845966D01*
X131638777Y-80828357D01*
X131483429Y-80865467D01*
X131218645Y-80994403D01*
X131054493Y-81132143D01*
X130881537Y-81370514D01*
X130818015Y-81517058D01*
X130800407Y-81718320D01*
X130883430Y-81928386D01*
X131112997Y-82201973D01*
X129836226Y-80569253D02*
X129873335Y-80724602D01*
X130056989Y-80943472D01*
X130203533Y-81006993D01*
X130358881Y-80969884D01*
X130796621Y-80602577D01*
X130860142Y-80456032D01*
X130823033Y-80300684D01*
X130639379Y-80081814D01*
X130492835Y-80018293D01*
X130337487Y-80055402D01*
X130228052Y-80147229D01*
X130577751Y-80786230D01*
X128963871Y-79529622D02*
X129000980Y-79684970D01*
X129184634Y-79903840D01*
X129331178Y-79967361D01*
X129431809Y-79976165D01*
X129587157Y-79939056D01*
X129915462Y-79663576D01*
X129978984Y-79517031D01*
X129987788Y-79416401D01*
X129950678Y-79261052D01*
X129767025Y-79042182D01*
X129620481Y-78978661D01*
X128846864Y-77389961D02*
X128855668Y-77289331D01*
X128818558Y-77133982D01*
X128588991Y-76860395D01*
X128442447Y-76796873D01*
X128341816Y-76788069D01*
X128186468Y-76825179D01*
X128077033Y-76917006D01*
X127958794Y-77109463D01*
X127853145Y-78317034D01*
X127256271Y-77605707D01*
X127808464Y-75930198D02*
X127716637Y-75820763D01*
X127570093Y-75757242D01*
X127469462Y-75748438D01*
X127314113Y-75785547D01*
X127049330Y-75914483D01*
X126775743Y-76144050D01*
X126602786Y-76382421D01*
X126539265Y-76528965D01*
X126530461Y-76629596D01*
X126567570Y-76784945D01*
X126659397Y-76894380D01*
X126805941Y-76957901D01*
X126906572Y-76966705D01*
X127061920Y-76929596D01*
X127326704Y-76800660D01*
X127600291Y-76571093D01*
X127773247Y-76332722D01*
X127836769Y-76186177D01*
X127845573Y-76085546D01*
X127808464Y-75930198D01*
X127010328Y-75201263D02*
X127019132Y-75100632D01*
X126982022Y-74945284D01*
X126752455Y-74671697D01*
X126605911Y-74608175D01*
X126505280Y-74599371D01*
X126349932Y-74636480D01*
X126240497Y-74728307D01*
X126122258Y-74920765D01*
X126016609Y-76128335D01*
X125419735Y-75417008D01*
X126092060Y-74106914D02*
X126100864Y-74006283D01*
X126063754Y-73850935D01*
X125834187Y-73577347D01*
X125687643Y-73513826D01*
X125587012Y-73505022D01*
X125431664Y-73542131D01*
X125322229Y-73633958D01*
X125203990Y-73826416D01*
X125098341Y-75033986D01*
X124501467Y-74322659D01*
M02*
